<svg width="17" height="14" viewBox="0 0 17 14" fill="none" xmlns="http://www.w3.org/2000/svg">
<path d="M13.6942 8.29876L10.4464 6.7354C10.1002 6.56874 9.81212 6.30111 9.62 5.96834C9.42802 5.63567 9.34061 5.25288 9.36936 4.86987L9.63932 1.27557L9.63872 1.27541L8.07536 4.52314C7.9087 4.86934 7.64122 5.15686 7.30847 5.34897C6.97562 5.54114 6.59264 5.62828 6.20939 5.59944L2.61554 5.33025L2.61537 5.33085L5.8631 6.89421C6.20918 7.06081 6.49698 7.32791 6.6891 7.6605C6.88122 7.99327 6.96895 8.37657 6.94017 8.75974L6.67021 12.354L6.66989 12.3552L6.67081 12.3542L8.23417 9.10647C8.40083 8.76025 8.66786 8.472 9.00062 8.27987C9.33339 8.08775 9.71654 8.00062 10.0997 8.0294L13.694 8.29936L13.6954 8.29908L13.6942 8.29876ZM2.52716 10.5836C2.61806 10.2438 2.41643 9.89433 2.07662 9.80328C1.7369 9.7124 1.38743 9.91417 1.29627 10.2538C1.20522 10.5936 1.40707 10.943 1.74681 11.0342C2.08671 11.1252 2.43608 10.9235 2.52716 10.5836ZM13.4521 4.2761L13.617 3.66066L13.0016 3.49575C12.6618 3.40456 12.46 3.05521 12.551 2.7154C12.6422 2.37575 12.9917 2.17399 13.3314 2.26486L13.9468 2.42977L14.1118 1.81432C14.2029 1.47467 14.5524 1.27291 14.8921 1.36378C15.2319 1.45484 15.4335 1.80432 15.3426 2.14414L15.1777 2.75958L15.7932 2.92449C16.133 3.01554 16.3346 3.36503 16.2437 3.70485C16.1526 4.04475 15.8033 4.24646 15.4634 4.15538L14.8479 3.99048L14.683 4.60592C14.5919 4.94582 14.2426 5.14753 13.9027 5.05646C13.5629 4.96527 13.3611 4.61592 13.4521 4.2761ZM3.75805 10.9134C3.48482 11.9332 2.43669 12.5383 1.41699 12.2651C0.397451 11.9917 -0.207827 10.9436 0.0653779 9.924C0.338696 8.90455 1.38691 8.29936 2.40644 8.57239C3.42605 8.84559 4.0311 9.89383 3.75805 10.9134ZM14.9263 8.6289C14.8493 8.91614 14.6739 9.16766 14.4312 9.33946C14.1885 9.51118 13.8934 9.593 13.597 9.57009L13.5966 9.56933L10.0047 9.30001C9.87692 9.2904 9.7491 9.32005 9.63815 9.3841C9.5272 9.44816 9.43762 9.54403 9.38207 9.65947L7.81936 12.9048C7.69098 13.173 7.47305 13.3883 7.20298 13.5127C6.93284 13.637 6.62732 13.6631 6.34007 13.5861C6.05294 13.5091 5.80186 13.3339 5.63011 13.0912C5.45837 12.8485 5.37657 12.5535 5.39948 12.257L5.39964 12.2564L5.66896 8.66455C5.67857 8.53681 5.64951 8.40913 5.58547 8.29819C5.52141 8.18724 5.42554 8.09765 5.3101 8.0421L2.06417 6.47923L2.06401 6.47983C1.79578 6.35143 1.58063 6.13301 1.45632 5.86286C1.33206 5.59275 1.30649 5.2873 1.38344 5.00011C1.46043 4.71304 1.6352 4.46173 1.87777 4.28999C2.09013 4.13968 2.34294 4.05875 2.60135 4.05614L2.71253 4.05952L6.30502 4.32899C6.43277 4.33861 6.56043 4.30956 6.67138 4.2455C6.78233 4.18145 6.87131 4.08541 6.92687 3.96997L8.48974 0.724044L8.5424 0.626069C8.67387 0.403587 8.87036 0.225113 9.10671 0.116354C9.37673 -0.00784393 9.68176 -0.033544 9.96886 0.0433162C10.2561 0.120269 10.5078 0.295141 10.6796 0.537804C10.8514 0.780535 10.933 1.07607 10.9101 1.37256L10.9095 1.3724L10.64 4.9649C10.6304 5.09265 10.66 5.22047 10.7241 5.33142C10.7881 5.44235 10.8842 5.53136 10.9996 5.5869L14.2449 7.14961C14.5131 7.27799 14.7283 7.4965 14.8526 7.76659C14.9769 8.03665 15.0031 8.34173 14.9263 8.6289Z" fill="white"/>
</svg>
