<svg width="16" height="16" viewBox="0 0 16 16" fill="none" xmlns="http://www.w3.org/2000/svg">
<path d="M3.37027 9.6508C3.67685 9.34421 4.17381 9.34421 4.4804 9.6508L6.8356 12.006C7.14219 12.3126 7.14219 12.8095 6.8356 13.1161L4.4804 15.4713C4.17381 15.7779 3.67685 15.7779 3.37027 15.4713C3.06368 15.1647 3.06368 14.6678 3.37027 14.3612L4.38533 13.3461H2.3552C1.73056 13.3461 1.13169 13.0978 0.69 12.6561C0.248314 12.2144 0 11.6156 0 10.9909V9.4208C0 8.98722 0.351486 8.63573 0.785067 8.63573C1.21865 8.63573 1.57013 8.98722 1.57013 9.4208V10.9909C1.57013 11.1991 1.6529 11.3988 1.80013 11.546C1.94736 11.6932 2.14699 11.776 2.3552 11.776H4.38533L3.37027 10.7609C3.06368 10.4543 3.06368 9.95739 3.37027 9.6508ZM10.2059 10.2059V14.1312H14.1312V10.2059H10.2059ZM1.57013 1.57013V5.49547H5.49547V1.57013H1.57013ZM9.4208 1.57013C8.98722 1.57013 8.63573 1.21865 8.63573 0.785067C8.63573 0.351486 8.98722 0 9.4208 0C9.83723 0 10.2365 0.165543 10.5309 0.46C10.8254 0.754457 10.9909 1.15371 10.9909 1.57013V5.49547C10.9909 5.91189 10.8254 6.31114 10.5309 6.6056C10.2365 6.90006 9.83723 7.0656 9.4208 7.0656C8.98722 7.0656 8.63573 6.71411 8.63573 6.28053C8.63573 5.84695 8.98722 5.49547 9.4208 5.49547V1.57013ZM13.3461 1.57013C12.9126 1.57013 12.5611 1.21865 12.5611 0.785067C12.5611 0.351486 12.9126 0 13.3461 0C13.7626 0 14.1618 0.165543 14.4563 0.46C14.7507 0.754458 14.9163 1.15371 14.9163 1.57013V5.49547C14.9163 5.91189 14.7507 6.31114 14.4563 6.6056C14.1618 6.90006 13.7626 7.0656 13.3461 7.0656C12.9126 7.0656 12.5611 6.71411 12.5611 6.28053C12.5611 5.84695 12.9126 5.49547 13.3461 5.49547V1.57013ZM15.7013 14.1312C15.7013 14.9984 14.9984 15.7013 14.1312 15.7013H10.2059C9.33871 15.7013 8.63573 14.9984 8.63573 14.1312V10.2059C8.63573 9.33871 9.33871 8.63573 10.2059 8.63573H14.1312C14.9984 8.63573 15.7013 9.33871 15.7013 10.2059V14.1312ZM7.0656 5.49547C7.0656 6.36263 6.36263 7.0656 5.49547 7.0656H1.57013C0.702973 7.0656 0 6.36263 0 5.49547V1.57013C0 0.702973 0.702973 0 1.57013 0H5.49547C6.36263 0 7.0656 0.702973 7.0656 1.57013V5.49547Z" fill="white"/>
</svg>
