<svg width="26" height="26" viewBox="0 0 26 26" fill="none" xmlns="http://www.w3.org/2000/svg">
<circle cx="12.8" cy="12.8" r="12.8" fill="white"/>
<path d="M20.6326 7.81765C20.4632 7.73305 20.39 7.8943 20.2911 7.97624C20.2573 8.00269 20.2285 8.03706 20.1997 8.06877C19.9522 8.33839 19.6629 8.51552 19.2846 8.49437C18.7319 8.46265 18.2599 8.63976 17.8429 9.07065C17.7542 8.5393 17.4596 8.22209 17.0112 8.01854C16.7762 7.91281 16.5392 7.80706 16.3747 7.57707C16.2602 7.41318 16.2291 7.23078 16.1715 7.05104C16.1351 6.94265 16.0987 6.83163 15.9763 6.81311C15.8429 6.79196 15.7909 6.90564 15.7386 7.00081C15.5301 7.3894 15.449 7.81765 15.4573 8.25117C15.4752 9.22663 15.8796 10.0038 16.6825 10.5563C16.7739 10.6197 16.7974 10.6832 16.7686 10.7757C16.714 10.966 16.6484 11.1511 16.5912 11.3414C16.5548 11.463 16.5002 11.4894 16.3721 11.4366C15.9316 11.2489 15.5509 10.9713 15.2143 10.6356C14.6434 10.0725 14.1271 9.45131 13.4834 8.96492C13.3343 8.85271 13.1812 8.74602 13.0243 8.64505C12.3674 7.99476 13.1104 7.46077 13.2825 7.39732C13.4622 7.33124 13.345 7.1039 12.7635 7.10654C12.182 7.10917 11.6501 7.30745 10.9723 7.5718C10.873 7.61144 10.7688 7.64052 10.6622 7.66433C10.0466 7.54535 9.40784 7.51893 8.74027 7.59558C7.48359 7.73834 6.47975 8.3437 5.7417 9.37729C4.85537 10.6197 4.64651 12.0314 4.90236 13.5038C5.17045 15.0555 5.94788 16.3402 7.14202 17.3448C8.38051 18.3863 9.80666 18.8965 11.4337 18.7987C12.422 18.7405 13.5221 18.6057 14.7632 17.5351C15.0763 17.6937 15.405 17.7572 15.9498 17.8047C16.3698 17.8444 16.7739 17.7836 17.0866 17.7175C17.5768 17.6118 17.5427 17.1491 17.3656 17.0646C15.9289 16.3825 16.2443 16.6601 15.9577 16.4354C16.6878 15.5551 17.788 14.6405 18.2182 11.6771C18.2523 11.4419 18.2235 11.2938 18.2182 11.1035C18.2156 10.9872 18.2414 10.9422 18.3721 10.929C18.7319 10.8867 19.0814 10.7863 19.4021 10.6065C20.3328 10.0884 20.7084 9.23719 20.7971 8.2168C20.8104 8.06084 20.7945 7.89959 20.6326 7.81765ZM12.5209 17.0011C11.1289 15.8856 10.4534 15.5181 10.1744 15.534C9.91356 15.5498 9.96056 15.8538 10.0178 16.0521C10.0777 16.2477 10.1561 16.3825 10.2657 16.5544C10.3412 16.668 10.3935 16.8372 10.1899 16.9641C9.74145 17.247 8.96202 16.8689 8.92562 16.8504C8.0181 16.3059 7.25918 15.5868 6.72467 14.6035C6.20837 13.6571 5.90884 12.642 5.85919 11.5582C5.84595 11.2965 5.92174 11.2039 6.17693 11.1563C6.51299 11.091 6.85762 11.082 7.19663 11.1299C8.61783 11.3414 9.82784 11.9891 10.8419 13.0147C11.4208 13.5989 11.8587 14.2968 12.3101 14.9789C12.7897 15.7031 13.306 16.3931 13.963 16.9588C14.195 17.1571 14.38 17.3077 14.5574 17.4188C14.0229 17.4796 13.1309 17.4928 12.5209 17.0011ZM13.1885 12.6261C13.1885 12.5098 13.2799 12.4173 13.3947 12.4173C13.4207 12.4177 13.4441 12.4222 13.4648 12.4305C13.5044 12.4457 13.5383 12.4725 13.5621 12.5075C13.5859 12.5425 13.5984 12.5839 13.5979 12.6261C13.5983 12.6534 13.5932 12.6804 13.583 12.7057C13.5728 12.731 13.5577 12.754 13.5386 12.7734C13.5194 12.7928 13.4966 12.8083 13.4715 12.8188C13.4463 12.8294 13.4193 12.8349 13.392 12.835C13.3649 12.8349 13.338 12.8294 13.3129 12.8188C13.2879 12.8082 13.2652 12.7927 13.2463 12.7733C13.2273 12.7538 13.2124 12.7308 13.2025 12.7055C13.1926 12.6803 13.1878 12.6533 13.1885 12.6261ZM15.2614 13.71C15.1286 13.7655 14.9956 13.8131 14.8675 13.8183C14.6696 13.8289 14.4531 13.747 14.336 13.6465C14.1533 13.4906 14.0229 13.4033 13.9682 13.131C13.9447 13.0147 13.9576 12.835 13.9785 12.7319C14.0255 12.5098 13.9732 12.3671 13.8196 12.2376C13.6945 12.1318 13.5353 12.1027 13.3606 12.1027C13.2954 12.1027 13.2355 12.0737 13.1911 12.0499C13.1695 12.0395 13.1503 12.0249 13.1347 12.0068C13.119 11.9887 13.1073 11.9676 13.1002 11.9447C13.0931 11.9219 13.0908 11.8978 13.0935 11.8741C13.0962 11.8503 13.1037 11.8274 13.1157 11.8067C13.1339 11.7697 13.2226 11.6798 13.2434 11.6639C13.4807 11.5264 13.7544 11.5714 14.0073 11.6745C14.242 11.7723 14.419 11.9521 14.6749 12.2058C14.9357 12.5125 14.9827 12.5971 15.1309 12.8271C15.2484 13.0068 15.3553 13.1919 15.4282 13.4033C15.4728 13.5355 15.4153 13.6439 15.2614 13.71Z" fill="#4D6BFE"/>
</svg>
