<svg width="60" height="46" viewBox="0 0 60 46" fill="none" xmlns="http://www.w3.org/2000/svg">
<path d="M59.3694 3.78272C58.734 3.46496 58.4597 4.07063 58.0886 4.37841C57.9621 4.47773 57.8541 4.60683 57.7461 4.72595C56.8177 5.73865 55.733 6.40395 54.3143 6.32451C52.2417 6.20539 50.4718 6.87062 48.9079 8.48905C48.5753 6.49329 47.4707 5.30184 45.789 4.53729C44.9078 4.14016 44.0191 3.74296 43.4023 2.8791C42.9729 2.26353 42.8562 1.57842 42.6403 0.90329C42.5037 0.496187 42.3672 0.0791815 41.908 0.00964439C41.4078 -0.0697956 41.2129 0.357185 41.0168 0.714629C40.2349 2.17419 39.9308 3.78272 39.9618 5.41106C40.0289 9.07491 41.5456 11.994 44.5566 14.0692C44.8991 14.3075 44.9872 14.5458 44.8792 14.8933C44.6745 15.6081 44.4287 16.3032 44.214 17.0181C44.0774 17.4749 43.8727 17.5741 43.3924 17.3756C41.7404 16.6706 40.3131 15.628 39.0509 14.3671C36.91 12.2522 34.9738 9.91883 32.5598 8.09192C32.0009 7.67048 31.4267 7.26973 30.8383 6.89049C28.3747 4.44795 31.161 2.44229 31.8064 2.20397C32.4803 1.95574 32.041 1.10185 29.8603 1.11176C27.6797 1.12166 25.6851 1.8664 23.1433 2.85929C22.771 3.0082 22.3799 3.11742 21.9804 3.20683C19.6718 2.75997 17.2765 2.66073 14.7731 2.94863C10.0605 3.48484 6.29613 5.7586 3.52845 9.64082C0.204695 14.3075 -0.578501 19.6096 0.380923 25.1401C1.38625 30.9685 4.3016 35.794 8.77966 39.567C13.424 43.479 18.772 45.3954 24.8735 45.0281C28.5795 44.8095 32.705 44.3032 37.3592 40.2819C38.5333 40.8777 39.7657 41.116 41.8087 41.2947C43.3837 41.4436 44.8991 41.2152 46.072 40.967C47.9101 40.5699 47.7822 38.8322 47.1182 38.5145C41.7305 35.9528 42.9133 36.9954 41.8385 36.1514C44.5764 32.845 48.7019 29.4095 50.3154 18.2791C50.4432 17.3954 50.3352 16.8394 50.3154 16.1245C50.3055 15.6877 50.4022 15.5188 50.8925 15.4692C52.2417 15.3103 53.5523 14.933 54.755 14.2579C58.245 12.3118 59.6536 9.1146 59.9863 5.28196C60.036 4.69617 59.9764 4.0905 59.3694 3.78272ZM28.9506 38.2762C23.7304 34.0862 21.1972 32.706 20.1509 32.7656C19.1729 32.8252 19.3492 33.967 19.5638 34.7117C19.7885 35.4465 20.0826 35.9528 20.4934 36.5982C20.7765 37.0252 20.9726 37.6607 20.2093 38.1372C18.5275 39.1997 15.6046 37.7798 15.4682 37.7103C12.065 35.6649 9.219 32.9642 7.21457 29.2706C5.27845 25.716 4.15523 21.9032 3.96902 17.8323C3.91936 16.8493 4.20358 16.5018 5.16055 16.323C6.42079 16.0775 7.71316 16.044 8.98444 16.2238C14.3139 17.0182 18.8515 19.4508 22.6543 23.3033C24.825 25.4975 26.467 28.1188 28.1599 30.6806C29.9583 33.401 31.8945 35.9926 34.3582 38.1174C35.2282 38.862 35.922 39.428 36.5872 39.845C34.5828 40.0734 31.238 40.123 28.9506 38.2762ZM31.4539 21.8436C31.4539 21.4068 31.7965 21.0592 32.2271 21.0592C32.3247 21.0609 32.4124 21.0775 32.4902 21.1089C32.6384 21.1658 32.7656 21.2668 32.8548 21.3981C32.944 21.5294 32.9909 21.6849 32.9892 21.8436C32.9905 21.946 32.9715 22.0476 32.9334 22.1425C32.8952 22.2375 32.8386 22.3239 32.7668 22.3969C32.695 22.4698 32.6095 22.5278 32.5151 22.5675C32.4208 22.6072 32.3195 22.6278 32.2172 22.6281C32.1153 22.6278 32.0144 22.6071 31.9205 22.5673C31.8267 22.5275 31.7417 22.4694 31.6706 22.3963C31.5995 22.3233 31.5437 22.2368 31.5065 22.1419C31.4693 22.0469 31.4514 21.9456 31.4539 21.8436ZM39.2272 25.9145C38.7294 26.1231 38.2305 26.3018 37.7502 26.3216C37.008 26.3614 36.1963 26.0536 35.757 25.6763C35.0718 25.0904 34.5828 24.7628 34.378 23.7401C34.2899 23.3032 34.3382 22.6281 34.4165 22.2408C34.5927 21.4068 34.3966 20.8706 33.8208 20.3841C33.3516 19.9869 32.7546 19.8777 32.0993 19.8777C31.8548 19.8777 31.6302 19.7685 31.4639 19.6791C31.3829 19.6403 31.3108 19.5852 31.2521 19.5173C31.1934 19.4493 31.1494 19.37 31.1228 19.2842C31.0962 19.1984 31.0877 19.1081 31.0977 19.0189C31.1077 18.9296 31.136 18.8434 31.1809 18.7657C31.2491 18.6266 31.5818 18.289 31.66 18.2295C32.5498 17.7131 33.5762 17.882 34.5244 18.2692C35.4044 18.6366 36.0684 19.3118 37.0278 20.265C38.0058 21.4167 38.1821 21.7345 38.7381 22.5983C39.1787 23.2734 39.5796 23.9685 39.8527 24.7628C40.0202 25.2593 39.8043 25.6663 39.2272 25.9145Z" fill="#4D6BFE"/>
</svg>
