<svg width="51" height="46" viewBox="0 0 51 46" fill="none" xmlns="http://www.w3.org/2000/svg">
<path d="M30.3901 45.9998V19.0993C32.6592 19.1007 34.8351 20.001 36.4398 21.6027C38.0446 23.2044 38.9471 25.3765 38.9491 27.642V45.9973L30.3876 45.9998H30.3901ZM0 45.3699V2.02648H8.68467V45.3674H0V45.3699ZM8.73243 27.6445V19.1018H30.3926V21.6165C30.3906 23.2168 29.7521 24.7508 28.6175 25.8812C27.4829 27.0116 25.9451 27.6459 24.3422 27.6445H8.73243ZM19.4331 19.1018L26.8634 1.75293H36.4304L30.6992 15.1291C30.1958 16.307 29.3568 17.3113 28.2865 18.0171C27.2162 18.723 25.9618 19.0993 24.6791 19.0993H19.4331V19.1018Z" fill="black"/>
<path d="M50.2727 5.02565C50.2731 5.68619 50.143 6.34033 49.89 6.95065C49.6369 7.56098 49.2659 8.11553 48.798 8.5826C48.3302 9.04968 47.7748 9.42012 47.1635 9.67274C46.5522 9.92537 45.897 10.0552 45.2354 10.0549C44.5014 10.0549 40.5776 10.5568 40.5776 10.5568C40.5776 10.5568 41.3342 9.67846 41.9601 8.85029C41.3182 8.30183 40.8247 7.60099 40.5252 6.81226C40.2257 6.02353 40.1296 5.17225 40.246 4.33676C40.3623 3.50127 40.6873 2.70842 41.1909 2.03116C41.6946 1.35391 42.3608 0.814013 43.1282 0.46116C43.8956 0.108307 44.7396 -0.0461674 45.5825 0.0119539C46.4253 0.0700752 47.24 0.338924 47.9516 0.79376C48.6631 1.24859 49.2486 1.8748 49.6542 2.61476C50.0599 3.35471 50.2725 4.18464 50.2727 5.02816V5.02565Z" fill="#007AFF"/>
</svg>
