<svg width="41" height="26" viewBox="0 0 41 26" fill="none" xmlns="http://www.w3.org/2000/svg">
<path d="M20.292 0C31.499 0 40.584 4.31532 40.584 9.63867C40.584 13.5712 35.6253 16.9502 28.5166 18.4492C27.1433 18.8911 24.493 19.8343 23.3281 20.8613C22.2456 21.8159 21.1356 24.1971 20.6084 25.4316C20.5118 25.6578 20.0822 25.6555 19.9883 25.4287C19.485 24.2129 18.4196 21.8858 17.2578 20.8613C16.0939 19.8351 13.4466 18.8926 12.0723 18.4502C4.96094 16.9517 3.04665e-05 13.5721 0 9.63867C1.1936e-05 4.31535 9.08502 4.70047e-05 20.292 0ZM19.9746 7.10254C12.2763 7.17488 6.08789 9.87085 6.08789 13.1875C6.08794 15.1905 8.3454 16.9667 11.8291 18.0762C11.8602 18.0199 11.9146 17.9714 11.9961 17.9453C13.3465 17.5139 16.072 16.5552 17.2578 15.5098C18.4294 14.4763 19.4716 8.3553 19.9746 7.10254ZM20.6152 7.10254C21.1257 8.3623 22.1809 14.4982 23.3281 15.5098C24.5132 16.5545 27.2393 17.5137 28.5898 17.9453C28.6705 17.9712 28.7237 18.0197 28.7549 18.0752C32.2384 16.9657 34.496 15.1905 34.4961 13.1875C34.4961 9.87168 28.3109 7.17619 20.6152 7.10254Z" fill="black"/>
</svg>
