<svg width="13" height="13" viewBox="0 0 13 13" fill="none" xmlns="http://www.w3.org/2000/svg">
<path d="M10.8628 0.258819C11.2079 -0.0862729 11.7672 -0.0862729 12.1123 0.258819C12.4574 0.60391 12.4574 1.16328 12.1123 1.50837L7.43512 6.18557L12.1123 10.8628C12.4574 11.2079 12.4574 11.7672 12.1123 12.1123C11.7672 12.4574 11.2079 12.4574 10.8628 12.1123L6.18557 7.43512L1.50837 12.1123C1.16328 12.4574 0.60391 12.4574 0.258819 12.1123C-0.0862729 11.7672 -0.0862729 11.2079 0.258819 10.8628L4.93601 6.18557L0.258819 1.50837C-0.0862729 1.16328 -0.0862729 0.60391 0.258819 0.258819C0.60391 -0.0862729 1.16328 -0.0862729 1.50837 0.258819L6.18557 4.93601L10.8628 0.258819Z" fill="black"/>
</svg>
