<svg width="8" height="8" viewBox="0 0 8 8" fill="none" xmlns="http://www.w3.org/2000/svg">
<path d="M3.31579 7.10526V4.26316H0.473684C0.212076 4.26316 0 4.05108 0 3.78947C0 3.52786 0.212076 3.31579 0.473684 3.31579H3.31579V0.473684C3.31579 0.212076 3.52786 0 3.78947 0C4.05108 0 4.26316 0.212076 4.26316 0.473684V3.31579H7.10526C7.36687 3.31579 7.57894 3.52786 7.57894 3.78947C7.57894 4.05108 7.36687 4.26316 7.10526 4.26316H4.26316V7.10526C4.26316 7.36687 4.05108 7.57894 3.78947 7.57894C3.52786 7.57894 3.31579 7.36687 3.31579 7.10526Z" fill="black"/>
</svg>
