<svg width="15" height="12" viewBox="0 0 15 12" fill="none" xmlns="http://www.w3.org/2000/svg">
<path d="M12 4.66666C12 4.29847 11.7015 4 11.3333 4H3.33333C2.96514 4 2.66667 4.29847 2.66667 4.66666V9.99999C2.66667 10.3682 2.96514 10.6667 3.33333 10.6667H11.3333C11.7015 10.6667 12 10.3682 12 9.99999V4.66666ZM4.66666 8V6.66666C4.66666 6.29847 4.96514 6 5.33333 6C5.70152 6 6 6.29847 6 6.66666V8C6 8.36819 5.70152 8.66666 5.33333 8.66666C4.96514 8.66666 4.66666 8.36819 4.66666 8ZM8.66666 8V6.66666C8.66666 6.29847 8.96514 6 9.33333 6C9.70152 6 9.99999 6.29847 9.99999 6.66666V8C9.99999 8.36819 9.70152 8.66666 9.33333 8.66666C8.96514 8.66666 8.66666 8.36819 8.66666 8ZM13.3333 6.66666H14C14.3682 6.66666 14.6667 6.96514 14.6667 7.33333C14.6667 7.70152 14.3682 8 14 8H13.3333V9.99999C13.3333 11.1046 12.4379 12 11.3333 12H3.33333C2.22876 12 1.33333 11.1046 1.33333 9.99999V8H0.666666C0.298477 8 0 7.70152 0 7.33333C0 6.96514 0.298477 6.66666 0.666666 6.66666H1.33333V4.66666C1.33333 3.56209 2.22876 2.66667 3.33333 2.66667H6.66666V1.33333H4.66666C4.29847 1.33333 4 1.03486 4 0.666666C4 0.298477 4.29847 0 4.66666 0H7.33333C7.70152 0 8 0.298477 8 0.666666V2.66667H11.3333C12.4379 2.66667 13.3333 3.56209 13.3333 4.66666V6.66666Z" fill="white"/>
</svg>
