<svg width="18" height="15" viewBox="0 0 18 15" fill="none" xmlns="http://www.w3.org/2000/svg">
<path d="M14.2268 5.53265C14.2268 5.09613 13.8729 4.74227 13.4364 4.74227H3.95189C3.51538 4.74227 3.16151 5.09613 3.16151 5.53265V11.8557C3.16151 12.2922 3.51538 12.646 3.95189 12.646H13.4364C13.8729 12.646 14.2268 12.2922 14.2268 11.8557V5.53265ZM5.53265 9.48454V7.90378C5.53265 7.46727 5.88651 7.1134 6.32302 7.1134C6.75954 7.1134 7.1134 7.46727 7.1134 7.90378V9.48454C7.1134 9.92105 6.75954 10.2749 6.32302 10.2749C5.88651 10.2749 5.53265 9.92105 5.53265 9.48454ZM10.2749 9.48454V7.90378C10.2749 7.46727 10.6288 7.1134 11.0653 7.1134C11.5018 7.1134 11.8557 7.46727 11.8557 7.90378V9.48454C11.8557 9.92105 11.5018 10.2749 11.0653 10.2749C10.6288 10.2749 10.2749 9.92105 10.2749 9.48454ZM15.8076 7.90378H16.5979C17.0345 7.90378 17.3883 8.25764 17.3883 8.69416C17.3883 9.13067 17.0345 9.48454 16.5979 9.48454H15.8076V11.8557C15.8076 13.1652 14.746 14.2268 13.4364 14.2268H3.95189C2.64235 14.2268 1.58076 13.1652 1.58076 11.8557V9.48454H0.790378C0.353864 9.48454 0 9.13067 0 8.69416C0 8.25764 0.353864 7.90378 0.790378 7.90378H1.58076V5.53265C1.58076 4.2231 2.64235 3.16151 3.95189 3.16151H7.90378V1.58076H5.53265C5.09613 1.58076 4.74227 1.22689 4.74227 0.790378C4.74227 0.353864 5.09613 0 5.53265 0H8.69416C9.13067 0 9.48454 0.353864 9.48454 0.790378V3.16151H13.4364C14.746 3.16151 15.8076 4.2231 15.8076 5.53265V7.90378Z" fill="white"/>
</svg>
