<svg width="19" height="19" viewBox="0 0 19 19" fill="none" xmlns="http://www.w3.org/2000/svg">
<path d="M5.45455 3.63636C5.45455 2.63221 4.64052 1.81818 3.63636 1.81818C2.63221 1.81818 1.81818 2.63221 1.81818 3.63636C1.81818 4.64052 2.63221 5.45455 3.63636 5.45455C4.64052 5.45455 5.45455 4.64052 5.45455 3.63636ZM16.3636 14.5455C16.3636 13.5413 15.5496 12.7273 14.5455 12.7273C13.5413 12.7273 12.7273 13.5413 12.7273 14.5455C12.7273 15.5496 13.5413 16.3636 14.5455 16.3636C15.5496 16.3636 16.3636 15.5496 16.3636 14.5455ZM13.6364 8.18182V7.27273C13.6364 6.77065 14.0434 6.36364 14.5455 6.36364C15.0475 6.36364 15.4545 6.77065 15.4545 7.27273V8.18182C15.4545 8.6839 15.0475 9.09091 14.5455 9.09091C14.0434 9.09091 13.6364 8.6839 13.6364 8.18182ZM13.6364 3.63636V2.72727C13.6364 2.2252 14.0434 1.81818 14.5455 1.81818C15.0475 1.81818 15.4545 2.2252 15.4545 2.72727V3.63636C15.4545 4.13844 15.0475 4.54545 14.5455 4.54545C14.0434 4.54545 13.6364 4.13844 13.6364 3.63636ZM18.1818 14.5455C18.1818 16.5538 16.5538 18.1818 14.5455 18.1818C12.5371 18.1818 10.9091 16.5538 10.9091 14.5455C10.9091 12.5371 12.5371 10.9091 14.5455 10.9091C16.5538 10.9091 18.1818 12.5371 18.1818 14.5455ZM7.27273 3.63636C7.27273 5.33077 6.11385 6.75453 4.54545 7.1582V17.2727C4.54545 17.7748 4.13844 18.1818 3.63636 18.1818C3.13429 18.1818 2.72727 17.7748 2.72727 17.2727V7.1582C1.15888 6.75453 0 5.33077 0 3.63636C0 1.62806 1.62806 0 3.63636 0C5.64467 0 7.27273 1.62806 7.27273 3.63636Z" fill="white" fill-opacity="0.4"/>
</svg>
