<svg width="19" height="20" viewBox="0 0 19 20" fill="none" xmlns="http://www.w3.org/2000/svg">
<path d="M9.09091 8.18182C9.09091 7.67974 8.6839 7.27273 8.18182 7.27273H2.72727C2.2252 7.27273 1.81818 7.67974 1.81818 8.18182V17.2727C1.81818 17.7748 2.2252 18.1818 2.72727 18.1818H8.18182C8.6839 18.1818 9.09091 17.7748 9.09091 17.2727V8.18182ZM16.3636 17.2727V2.72727C16.3636 2.48617 16.2678 2.255 16.0973 2.08452C15.9268 1.91403 15.6957 1.81818 15.4545 1.81818H4.54545C4.30435 1.81818 4.07319 1.91403 3.9027 2.08452C3.73221 2.255 3.63636 2.48617 3.63636 2.72727C3.63636 3.22935 3.22935 3.63636 2.72727 3.63636C2.2252 3.63636 1.81818 3.22935 1.81818 2.72727C1.81818 2.00396 2.10572 1.31047 2.61719 0.799006C3.12865 0.287543 3.82214 0 4.54545 0H15.4545C16.1779 0 16.8713 0.287543 17.3828 0.799006C17.8943 1.31047 18.1818 2.00395 18.1818 2.72727V17.2727C18.1818 17.996 17.8943 18.6895 17.3828 19.201C16.8713 19.7125 16.1779 20 15.4545 20H13.2724C12.7705 19.9998 12.3633 19.5929 12.3633 19.0909C12.3633 18.589 12.7705 18.182 13.2724 18.1818H15.4545C15.6957 18.1818 15.9268 18.086 16.0973 17.9155C16.2678 17.745 16.3636 17.5138 16.3636 17.2727ZM5.46342 14.5455C5.9655 14.5455 6.37251 14.9525 6.37251 15.4545C6.37251 15.9566 5.9655 16.3636 5.46342 16.3636H5.45455C4.95247 16.3636 4.54545 15.9566 4.54545 15.4545C4.54545 14.9525 4.95247 14.5455 5.45455 14.5455H5.46342ZM10.9091 17.2727C10.9091 18.779 9.68805 20 8.18182 20H2.72727C1.22104 20 0 18.779 0 17.2727V8.18182C0 6.67559 1.22104 5.45455 2.72727 5.45455H8.18182C9.68805 5.45455 10.9091 6.67559 10.9091 8.18182V17.2727Z" fill="white" fill-opacity="0.4"/>
</svg>
