<svg width="48" height="48" viewBox="0 0 48 48" fill="none" xmlns="http://www.w3.org/2000/svg">
<path d="M42.342 30.1355C44.1933 21.2344 39.3582 12.2952 30.8955 8.97245C30.4042 5.57557 27.4913 3.05516 24.0587 3.05762C20.6266 3.05557 17.7141 5.57557 17.2232 8.97245C10.0844 11.7756 5.38819 18.6624 5.38614 26.3322C5.38614 27.3099 5.51768 28.5785 5.77664 30.1335C4.1454 31.3951 3.09766 33.3689 3.09766 35.5873C3.09848 37.4177 3.82702 39.1727 5.12185 40.4663C5.76308 41.1069 6.52421 41.6148 7.36176 41.9612C8.19932 42.3076 9.09691 42.4857 10.0033 42.4852C11.2231 42.4852 12.37 42.1705 13.3612 41.6181C16.4969 43.8115 20.2324 44.9852 24.0591 44.9794C27.8854 44.9859 31.6208 43.8111 34.755 41.6161C35.7499 42.1688 36.8952 42.4868 38.1146 42.4868C39.945 42.488 41.7008 41.7615 42.996 40.4679C43.6374 39.8274 44.1462 39.0669 44.4935 38.2296C44.8409 37.3924 45.0198 36.495 45.0202 35.5886C45.021 34.5353 44.7799 33.4959 44.3156 32.5504C43.8513 31.605 43.1761 30.7788 42.342 30.1355ZM24.0071 6.05294C26.1358 6.05294 27.8613 7.77801 27.8613 9.90177C27.8625 12.0292 26.1391 13.7547 24.012 13.7563C21.8846 13.7576 20.1591 12.0341 20.1579 9.9071C20.1562 7.77965 21.8796 6.05376 24.0071 6.05294ZM10.0311 39.2665C7.90369 39.2678 6.1782 37.5443 6.17697 35.4173C6.17533 33.2898 7.89877 31.5644 10.0262 31.5631C12.1549 31.5631 13.8804 33.2882 13.8804 35.412C13.8816 37.5398 12.1582 39.2653 10.0311 39.2665ZM32.033 38.8592C29.6798 40.3569 26.934 41.1748 24.0587 41.1748C21.2342 41.1801 18.4673 40.3758 16.0857 38.8572C16.6277 37.8534 16.9107 36.7302 16.9089 35.5894C16.9089 31.7799 13.7497 28.4055 9.38782 28.7219C9.38782 28.7219 9.15344 27.2545 9.19729 26.3322C9.19892 20.5534 12.554 15.3003 17.7968 12.8692C18.9335 15.3007 21.3748 16.8537 24.0587 16.8521C26.7643 16.8521 29.1045 15.3577 30.3182 12.8655C35.5622 15.2974 38.9185 20.5517 38.9198 26.3322C38.9198 27.1398 38.7255 28.7219 38.7255 28.7219C34.4321 28.3387 31.2082 31.7782 31.2082 35.5894C31.2065 36.731 31.4901 37.855 32.033 38.8592ZM37.9355 39.2665C35.8081 39.2678 34.0826 37.5443 34.0814 35.4173C34.0797 33.2898 35.8032 31.5644 37.9306 31.5631C40.0593 31.5631 41.7848 33.2882 41.7848 35.412C41.786 37.5398 40.0626 39.2653 37.9355 39.2665Z" fill="#AEFF21"/>
</svg>
