<svg width="48" height="48" viewBox="0 0 48 48" fill="none" xmlns="http://www.w3.org/2000/svg">
<g clip-path="url(#clip0_500_1982)">
<path d="M43.6364 17.3333H4.36364V37.3333C4.36364 38.5606 5.34047 39.5556 6.54545 39.5556H41.4545C42.6595 39.5556 43.6364 38.5606 43.6364 37.3333V17.3333ZM13.0909 12.8889H17.4545V8.44444H13.0909V12.8889ZM43.6364 10.6667C43.6364 9.43937 42.6595 8.44444 41.4545 8.44444H21.8182V12.8889H43.6364V10.6667ZM4.36364 12.8889H8.72727V8.44444H6.54545C5.34047 8.44444 4.36364 9.43937 4.36364 10.6667V12.8889ZM48 37.3333C48 41.0152 45.0695 44 41.4545 44H6.54545C2.9305 44 0 41.0152 0 37.3333V10.6667C0 6.98477 2.9305 4 6.54545 4H41.4545C45.0695 4 48 6.98477 48 10.6667V37.3333Z" fill="#AEFF21" stroke="black" stroke-linecap="round" stroke-linejoin="round"/>
</g>
<defs>
<clipPath id="clip0_500_1982">
<rect width="48" height="48" fill="white"/>
</clipPath>
</defs>
</svg>
