<svg width="13" height="13" viewBox="0 0 13 13" fill="none" xmlns="http://www.w3.org/2000/svg">
<path d="M2.7475 7.86749C2.99743 7.61756 3.40256 7.61756 3.6525 7.86749L5.5725 9.78749C5.82243 10.0374 5.82243 10.4426 5.5725 10.6925L3.6525 12.6125C3.40256 12.8624 2.99743 12.8624 2.7475 12.6125C2.49756 12.3626 2.49756 11.9574 2.7475 11.7075L3.575 10.88H1.92C1.41078 10.88 0.922569 10.6776 0.5625 10.3175C0.20243 9.95742 0 9.46921 0 8.95999V7.67999C0 7.32653 0.286538 7.04 0.64 7.04C0.993462 7.04 1.28 7.32653 1.28 7.67999V8.95999C1.28 9.12973 1.34748 9.29247 1.4675 9.41249C1.58752 9.53252 1.75026 9.59999 1.92 9.59999H3.575L2.7475 8.77249C2.49756 8.52256 2.49756 8.11743 2.7475 7.86749ZM8.31999 8.31999V11.52H11.52V8.31999H8.31999ZM1.28 1.28V4.48H4.48V1.28H1.28ZM7.67999 1.28C7.32653 1.28 7.04 0.993462 7.04 0.64C7.04 0.286538 7.32653 0 7.67999 0C8.01947 0 8.34495 0.134953 8.58499 0.375C8.82504 0.615046 8.95999 0.940522 8.95999 1.28V4.48C8.95999 4.81947 8.82504 5.14495 8.58499 5.385C8.34495 5.62504 8.01947 5.76 7.67999 5.76C7.32653 5.76 7.04 5.47346 7.04 5.12C7.04 4.76653 7.32653 4.48 7.67999 4.48V1.28ZM10.88 1.28C10.5265 1.28 10.24 0.993462 10.24 0.64C10.24 0.286538 10.5265 0 10.88 0C11.2195 0 11.5449 0.134953 11.785 0.375C12.025 0.615047 12.16 0.940524 12.16 1.28V4.48C12.16 4.81947 12.025 5.14495 11.785 5.385C11.5449 5.62504 11.2195 5.76 10.88 5.76C10.5265 5.76 10.24 5.47346 10.24 5.12C10.24 4.76653 10.5265 4.48 10.88 4.48V1.28ZM12.8 11.52C12.8 12.2269 12.2269 12.8 11.52 12.8H8.31999C7.61307 12.8 7.04 12.2269 7.04 11.52V8.31999C7.04 7.61307 7.61307 7.04 8.31999 7.04H11.52C12.2269 7.04 12.8 7.61307 12.8 8.31999V11.52ZM5.76 4.48C5.76 5.18692 5.18692 5.76 4.48 5.76H1.28C0.573075 5.76 0 5.18692 0 4.48V1.28C0 0.573075 0.573075 0 1.28 0H4.48C5.18692 0 5.76 0.573075 5.76 1.28V4.48Z" fill="white"/>
</svg>
