<svg width="336" height="209" viewBox="0 0 336 209" fill="none" xmlns="http://www.w3.org/2000/svg">
<g filter="url(#filter0_n_500_1943)">
<mask id="path-1-inside-1_500_1943" fill="white">
<path d="M205.131 9.81849C194.387 1.11824 175.018 -2.47147 161.87 1.80063V26.8327C175.018 22.5606 194.387 26.1503 205.131 34.8505V9.81849Z"/>
<path d="M161.87 1.80063L11.2919 50.7266V75.7587L161.87 26.8327V1.80063Z"/>
<path d="M4.99722e-08 62.5107C0.000506827 57.5573 3.85482 53.1431 11.2919 50.7266V75.7587C3.85482 78.1752 0.000506827 82.5894 4.99722e-08 87.5427V62.5107Z"/>
<path d="M328.174 109.457L205.131 9.81849V34.8505L328.174 134.489V109.457Z"/>
<path d="M6.9383 74.2151C2.27237 70.4367 0.000389094 66.3158 4.99722e-08 62.5126V87.5427C-0.000389059 91.3465 2.27157 95.4681 6.9383 99.2471V74.2151Z"/>
<path d="M335.113 121.16C335.113 117.357 332.84 113.236 328.174 109.457V134.489C332.84 138.268 335.113 142.389 335.113 146.192V121.16Z"/>
<path d="M6.9383 74.2151L129.982 173.854V198.886L6.9383 99.2471V74.2151Z"/>
<path d="M323.821 132.946C331.258 130.529 335.112 126.115 335.113 121.162L335.113 146.192C335.114 151.146 331.259 155.561 323.821 157.978V132.946Z"/>
<path d="M173.243 181.872L323.821 132.946V157.978L173.243 206.904V181.872Z"/>
<path d="M129.982 173.854C140.726 182.554 160.095 186.144 173.243 181.872V206.904C160.095 211.176 140.726 207.586 129.982 198.886V173.854Z"/>
</mask>
<path d="M205.131 9.81849C194.387 1.11824 175.018 -2.47147 161.87 1.80063V26.8327C175.018 22.5606 194.387 26.1503 205.131 34.8505V9.81849Z" fill="url(#paint0_linear_500_1943)"/>
<path d="M161.87 1.80063L11.2919 50.7266V75.7587L161.87 26.8327V1.80063Z" fill="url(#paint1_linear_500_1943)"/>
<path d="M4.99722e-08 62.5107C0.000506827 57.5573 3.85482 53.1431 11.2919 50.7266V75.7587C3.85482 78.1752 0.000506827 82.5894 4.99722e-08 87.5427V62.5107Z" fill="url(#paint2_linear_500_1943)"/>
<path d="M328.174 109.457L205.131 9.81849V34.8505L328.174 134.489V109.457Z" fill="url(#paint3_linear_500_1943)"/>
<path d="M6.9383 74.2151C2.27237 70.4367 0.000389094 66.3158 4.99722e-08 62.5126V87.5427C-0.000389059 91.3465 2.27157 95.4681 6.9383 99.2471V74.2151Z" fill="url(#paint4_linear_500_1943)"/>
<path d="M335.113 121.16C335.113 117.357 332.84 113.236 328.174 109.457V134.489C332.84 138.268 335.113 142.389 335.113 146.192V121.16Z" fill="url(#paint5_linear_500_1943)"/>
<path d="M6.9383 74.2151L129.982 173.854V198.886L6.9383 99.2471V74.2151Z" fill="url(#paint6_linear_500_1943)"/>
<path d="M323.821 132.946C331.258 130.529 335.112 126.115 335.113 121.162L335.113 146.192C335.114 151.146 331.259 155.561 323.821 157.978V132.946Z" fill="url(#paint7_linear_500_1943)"/>
<path d="M173.243 181.872L323.821 132.946V157.978L173.243 206.904V181.872Z" fill="url(#paint8_linear_500_1943)"/>
<path d="M129.982 173.854C140.726 182.554 160.095 186.144 173.243 181.872V206.904C160.095 211.176 140.726 207.586 129.982 198.886V173.854Z" fill="url(#paint9_linear_500_1943)"/>
<path d="M205.131 9.81849H204.818V34.8505H205.131H205.444V9.81849H205.131ZM161.87 26.8327H162.183V1.80063H161.87H161.557V26.8327H161.87ZM11.2919 75.7587H11.6048V50.7266H11.2919H10.979V75.7587H11.2919ZM328.174 109.457H327.861V134.489H328.174H328.487V109.457H328.174ZM4.99722e-08 62.5107H-0.312901V62.5126H4.99722e-08H0.312901V62.5107H4.99722e-08ZM6.9383 74.2151H6.62539V99.2471H6.9383H7.2512V74.2151H6.9383ZM129.982 198.886H130.295V173.854H129.982H129.669V198.886H129.982ZM335.113 121.16L334.804 121.11L334.804 121.112L335.113 121.162L335.422 121.212L335.422 121.21L335.113 121.16ZM323.821 132.946H323.508V157.978H323.821H324.134V132.946H323.821ZM173.243 181.872H172.93V206.904H173.243H173.556V181.872H173.243ZM161.87 1.80063L161.677 1.20546V1.20546L161.87 1.80063ZM205.131 9.81849L205.524 9.33215V9.33215L205.131 9.81849ZM205.131 34.8505L205.524 34.3642V34.3642L205.131 34.8505ZM161.87 26.8327L161.677 26.2375V26.2375L161.87 26.8327ZM11.2919 50.7266L11.4853 51.3218H11.4853L11.2919 50.7266ZM11.2919 75.7587L11.4853 76.3539H11.4853L11.2919 75.7587ZM4.99722e-08 62.5107L-0.625801 62.5106V62.5107H4.99722e-08ZM328.174 109.457L327.78 109.944V109.944L328.174 109.457ZM328.174 134.489L327.78 134.976V134.976L328.174 134.489ZM4.99722e-08 62.5126L0.625801 62.5125C0.625766 62.1669 0.345576 61.8868 -3.19576e-05 61.8868C-0.34564 61.8868 -0.625801 62.167 -0.625801 62.5126H4.99722e-08ZM6.9383 74.2151L7.33212 73.7287V73.7287L6.9383 74.2151ZM6.9383 99.2471L7.33212 98.7608V98.7608L6.9383 99.2471ZM335.113 121.16H335.739V121.16L335.113 121.16ZM335.113 146.192L334.487 146.192V146.192L335.113 146.192ZM129.982 173.854L129.588 174.34V174.34L129.982 173.854ZM129.982 198.886L129.588 199.372V199.372L129.982 198.886ZM335.113 121.162L335.739 121.162C335.739 120.816 335.459 120.536 335.113 120.536C334.767 120.536 334.487 120.816 334.487 121.162L335.113 121.162ZM323.821 132.946L324.015 133.541V133.541L323.821 132.946ZM323.821 157.978L324.015 158.573V158.573L323.821 157.978ZM173.243 181.872L173.049 181.277V181.277L173.243 181.872ZM173.243 206.904L173.049 206.309V206.309L173.243 206.904ZM161.87 1.80063L162.064 2.3958C168.514 0.299955 176.533 0.122978 184.288 1.56025C192.043 2.99752 199.466 6.03658 204.737 10.3048L205.131 9.81849L205.524 9.33215C200.051 4.90015 192.418 1.79423 184.516 0.329606C176.614 -1.13501 168.375 -0.970796 161.677 1.20546L161.87 1.80063ZM205.131 34.8505L205.524 34.3642C200.051 29.9322 192.418 26.8263 184.516 25.3617C176.614 23.897 168.375 24.0613 161.677 26.2375L161.87 26.8327L162.064 27.4279C168.514 25.332 176.533 25.155 184.288 26.5923C192.043 28.0296 199.466 31.0686 204.737 35.3369L205.131 34.8505ZM11.2919 50.7266L11.4853 51.3218L162.064 2.3958L161.87 1.80063L161.677 1.20546L11.0986 50.1315L11.2919 50.7266ZM161.87 26.8327L161.677 26.2375L11.0986 75.1635L11.2919 75.7587L11.4853 76.3539L162.064 27.4279L161.87 26.8327ZM11.2919 50.7266L11.0986 50.1315C3.5347 52.5891 -0.625255 57.1699 -0.625801 62.5106L4.99722e-08 62.5107L0.625801 62.5107C0.626269 57.9447 4.17493 53.6971 11.4853 51.3218L11.2919 50.7266ZM4.99722e-08 62.5107H-0.625801V87.5427H4.99722e-08H0.625801V62.5107H4.99722e-08ZM4.99722e-08 87.5427L0.625801 87.5428C0.626269 82.9767 4.17493 78.7292 11.4853 76.3539L11.2919 75.7587L11.0986 75.1635C3.5347 77.6212 -0.625255 82.202 -0.625801 87.5427L4.99722e-08 87.5427ZM205.131 9.81849L204.737 10.3048L327.78 109.944L328.174 109.457L328.568 108.971L205.524 9.33215L205.131 9.81849ZM328.174 134.489L328.568 134.003L205.524 34.3642L205.131 34.8505L204.737 35.3369L327.78 134.976L328.174 134.489ZM4.99722e-08 62.5126L-0.625801 62.5127C-0.625386 66.5739 1.79575 70.856 6.54447 74.7014L6.9383 74.2151L7.33212 73.7287C2.74899 70.0174 0.626164 66.0577 0.625801 62.5125L4.99722e-08 62.5126ZM6.9383 99.2471L7.33212 98.7608C2.7482 95.0488 0.625439 91.0885 0.625801 87.5428L4.99722e-08 87.5427L-0.625801 87.5427C-0.626217 91.6045 1.79494 95.8874 6.54447 99.7335L6.9383 99.2471ZM4.99722e-08 87.5427H0.625801V62.5126H4.99722e-08H-0.625801V87.5427H4.99722e-08ZM328.174 109.457L327.78 109.944C332.364 113.655 334.487 117.615 334.487 121.16L335.113 121.16L335.739 121.16C335.739 117.098 333.317 112.816 328.568 108.971L328.174 109.457ZM335.113 121.16H334.487V146.192H335.113H335.739V121.16H335.113ZM335.113 146.192L335.739 146.192C335.739 142.131 333.317 137.848 328.568 134.003L328.174 134.489L327.78 134.976C332.364 138.687 334.487 142.647 334.487 146.192L335.113 146.192ZM129.982 173.854L130.376 173.368L7.33212 73.7287L6.9383 74.2151L6.54447 74.7014L129.588 174.34L129.982 173.854ZM6.9383 99.2471L6.54447 99.7335L129.588 199.372L129.982 198.886L130.376 198.4L7.33212 98.7608L6.9383 99.2471ZM335.113 121.162L334.487 121.162C334.487 125.728 330.938 129.975 323.628 132.351L323.821 132.946L324.015 133.541C331.579 131.083 335.738 126.503 335.739 121.162L335.113 121.162ZM323.821 157.978L324.015 158.573C331.58 156.115 335.74 151.533 335.739 146.192L335.113 146.192L334.487 146.192C334.488 150.759 330.939 155.007 323.628 157.383L323.821 157.978ZM335.113 146.192L335.739 146.192L335.739 121.162L335.113 121.162L334.487 121.162L334.487 146.192H335.113ZM323.821 132.946L323.628 132.351L173.049 181.277L173.243 181.872L173.436 182.467L324.015 133.541L323.821 132.946ZM173.243 206.904L173.436 207.499L324.015 158.573L323.821 157.978L323.628 157.383L173.049 206.309L173.243 206.904ZM173.243 181.872L173.049 181.277C166.599 183.372 158.58 183.549 150.825 182.112C143.07 180.675 135.647 177.636 130.376 173.368L129.982 173.854L129.588 174.34C135.061 178.772 142.694 181.878 150.597 183.343C158.499 184.807 166.738 184.643 173.436 182.467L173.243 181.872ZM129.982 198.886L129.588 199.372C135.061 203.804 142.694 206.91 150.597 208.375C158.499 209.84 166.738 209.675 173.436 207.499L173.243 206.904L173.049 206.309C166.599 208.405 158.58 208.582 150.825 207.144C143.07 205.707 135.647 202.668 130.376 198.4L129.982 198.886Z" fill="#42408F" mask="url(#path-1-inside-1_500_1943)"/>
</g>
<defs>
<filter id="filter0_n_500_1943" x="0" y="0" width="335.113" height="208.704" filterUnits="userSpaceOnUse" color-interpolation-filters="sRGB">
<feFlood flood-opacity="0" result="BackgroundImageFix"/>
<feBlend mode="normal" in="SourceGraphic" in2="BackgroundImageFix" result="shape"/>
<feTurbulence type="fractalNoise" baseFrequency="2.2363095283508301 2.2363095283508301" stitchTiles="stitch" numOctaves="3" result="noise" seed="2523" />
<feColorMatrix in="noise" type="luminanceToAlpha" result="alphaNoise" />
<feComponentTransfer in="alphaNoise" result="coloredNoise1">
<feFuncA type="discrete" tableValues="1 1 1 1 1 1 1 1 1 1 1 1 1 1 1 1 1 1 1 1 1 1 1 1 1 1 1 1 1 1 1 1 1 1 1 1 1 1 1 1 1 1 1 1 1 1 1 1 1 1 1 0 0 0 0 0 0 0 0 0 0 0 0 0 0 0 0 0 0 0 0 0 0 0 0 0 0 0 0 0 0 0 0 0 0 0 0 0 0 0 0 0 0 0 0 0 0 0 0 0 "/>
</feComponentTransfer>
<feComposite operator="in" in2="shape" in="coloredNoise1" result="noise1Clipped" />
<feFlood flood-color="rgba(0, 0, 0, 0.25)" result="color1Flood" />
<feComposite operator="in" in2="noise1Clipped" in="color1Flood" result="color1" />
<feMerge result="effect1_noise_500_1943">
<feMergeNode in="shape" />
<feMergeNode in="color1" />
</feMerge>
</filter>
<linearGradient id="paint0_linear_500_1943" x1="167.245" y1="119.719" x2="167.557" y2="208.704" gradientUnits="userSpaceOnUse">
<stop stop-color="#FEFFA7"/>
<stop offset="0.831743" stop-color="#B0E279"/>
</linearGradient>
<linearGradient id="paint1_linear_500_1943" x1="167.245" y1="119.719" x2="167.557" y2="208.704" gradientUnits="userSpaceOnUse">
<stop stop-color="#FEFFA7"/>
<stop offset="0.831743" stop-color="#B0E279"/>
</linearGradient>
<linearGradient id="paint2_linear_500_1943" x1="167.245" y1="119.719" x2="167.557" y2="208.704" gradientUnits="userSpaceOnUse">
<stop stop-color="#FEFFA7"/>
<stop offset="0.831743" stop-color="#B0E279"/>
</linearGradient>
<linearGradient id="paint3_linear_500_1943" x1="167.245" y1="119.719" x2="167.557" y2="208.704" gradientUnits="userSpaceOnUse">
<stop stop-color="#FEFFA7"/>
<stop offset="0.831743" stop-color="#B0E279"/>
</linearGradient>
<linearGradient id="paint4_linear_500_1943" x1="167.245" y1="119.719" x2="167.557" y2="208.704" gradientUnits="userSpaceOnUse">
<stop stop-color="#FEFFA7"/>
<stop offset="0.831743" stop-color="#B0E279"/>
</linearGradient>
<linearGradient id="paint5_linear_500_1943" x1="167.245" y1="119.719" x2="167.557" y2="208.704" gradientUnits="userSpaceOnUse">
<stop stop-color="#FEFFA7"/>
<stop offset="0.831743" stop-color="#B0E279"/>
</linearGradient>
<linearGradient id="paint6_linear_500_1943" x1="167.245" y1="119.719" x2="167.557" y2="208.704" gradientUnits="userSpaceOnUse">
<stop stop-color="#FEFFA7"/>
<stop offset="0.831743" stop-color="#B0E279"/>
</linearGradient>
<linearGradient id="paint7_linear_500_1943" x1="167.245" y1="119.719" x2="167.557" y2="208.704" gradientUnits="userSpaceOnUse">
<stop stop-color="#FEFFA7"/>
<stop offset="0.831743" stop-color="#B0E279"/>
</linearGradient>
<linearGradient id="paint8_linear_500_1943" x1="167.245" y1="119.719" x2="167.557" y2="208.704" gradientUnits="userSpaceOnUse">
<stop stop-color="#FEFFA7"/>
<stop offset="0.831743" stop-color="#B0E279"/>
</linearGradient>
<linearGradient id="paint9_linear_500_1943" x1="167.245" y1="119.719" x2="167.557" y2="208.704" gradientUnits="userSpaceOnUse">
<stop stop-color="#FEFFA7"/>
<stop offset="0.831743" stop-color="#B0E279"/>
</linearGradient>
</defs>
</svg>
