<svg width="8" height="8" viewBox="0 0 8 8" fill="none" xmlns="http://www.w3.org/2000/svg">
<path d="M7.27273 3.18182C7.27273 3.43286 7.06922 3.63636 6.81818 3.63636C6.56714 3.63636 6.36364 3.43286 6.36364 3.18182V1.55185L1.55185 6.36364H3.18182C3.43286 6.36364 3.63636 6.56714 3.63636 6.81818C3.63636 7.06922 3.43286 7.27273 3.18182 7.27273H0.454545C0.203507 7.27273 0 7.06922 0 6.81818V4.09091C0 3.83987 0.203507 3.63636 0.454545 3.63636C0.705584 3.63636 0.909091 3.83987 0.909091 4.09091V5.72088L5.72088 0.909091H4.09091C3.83987 0.909091 3.63636 0.705584 3.63636 0.454545C3.63636 0.203507 3.83987 0 4.09091 0H6.81818C7.06922 0 7.27273 0.203507 7.27273 0.454545V3.18182Z" fill="white"/>
</svg>
