<svg width="48" height="48" viewBox="0 0 48 48" fill="none" xmlns="http://www.w3.org/2000/svg">
<path d="M43.7485 4.90234V28.2147C43.7485 32.4702 43.7485 34.5979 43.0738 36.1349C42.4021 37.665 41.6764 38.5453 40.3026 39.4965C38.9225 40.4521 36.3588 40.9504 31.2315 41.9469C30.1859 42.1501 29.1458 42.3872 28.1125 42.6633C26.7595 43.0233 25.4695 43.4373 24.2515 43.9023C22.9836 43.4231 21.6919 43.0095 20.3815 42.6633C19.7546 42.4957 18.8376 42.3287 17.7566 42.1675C12.488 41.3819 9.85377 40.989 8.39872 40.0464C6.95384 39.1103 6.17893 38.2113 5.46621 36.6441C4.74847 35.066 4.74847 32.5834 4.74847 27.6183V4.90234C9.53573 4.93635 13.8576 5.34903 17.7102 6.13639C18.6916 6.33695 19.3765 7.21299 19.3765 8.21461C19.3765 9.62555 18.0502 10.6597 16.666 10.3858C14.1179 9.88176 11.5459 9.55694 8.93947 9.39934V30.5157C8.93947 32.6376 8.93947 33.6985 9.30248 34.4914C9.6416 35.2322 10.0978 35.7571 10.7841 36.1961C11.5188 36.666 12.6685 36.8277 14.9679 37.1511C17.2433 37.4711 19.3957 37.9007 21.4255 38.4423C22.3945 38.7003 23.3365 38.9853 24.2485 39.2943C25.1575 38.9853 26.0995 38.7033 27.0685 38.4423C29.0981 37.902 31.2488 37.472 33.5252 37.1514C35.8255 36.8275 36.9757 36.6655 37.7102 36.1956C38.3965 35.7565 38.8524 35.2319 39.1916 34.491C39.5545 33.6981 39.5545 32.6371 39.5545 30.5149V9.39934L38.1235 9.50134C35.471 9.71837 32.8114 10.0878 30.2161 10.7092C29.151 10.9642 28.6184 11.0917 28.1282 11.4534C27.7257 11.7504 27.3423 12.2365 27.1472 12.697C26.9095 13.2581 26.9095 13.872 26.9095 15.0997V23.7483C26.9095 24.9065 25.9706 25.8453 24.8125 25.8453C23.6543 25.8453 22.7155 24.9065 22.7155 23.7483V12.5715C22.7155 11.2261 22.7155 10.5534 22.995 9.84549C23.2068 9.30917 23.7157 8.60647 24.1592 8.23798C24.7447 7.75156 25.2407 7.58872 26.2327 7.26306C30.7324 5.78584 36.552 5.19718 43.6885 5.05234L43.6825 4.90234H43.7485Z" fill="#AEFF21" stroke="black" stroke-linecap="round" stroke-linejoin="round"/>
</svg>
