<svg width="48" height="48" viewBox="0 0 48 48" fill="none" xmlns="http://www.w3.org/2000/svg">
<path fill-rule="evenodd" clip-rule="evenodd" d="M3.98435 33.292C4.39074 33.1333 4.84351 33.1424 5.24314 33.3174L23.7812 41.4346L42.3144 33.3203C42.7124 33.1558 43.1592 33.1535 43.5586 33.3145C43.958 33.4755 44.2786 33.7871 44.4511 34.1816C44.6237 34.5762 44.6343 35.0232 44.4814 35.4258C44.3285 35.8282 44.0237 36.1545 43.6328 36.335L24.4551 44.7324C24.3329 44.7829 24.2057 44.8161 24.0771 44.8359C23.9622 44.8585 23.8452 44.8706 23.7275 44.8682C23.5115 44.8638 23.2984 44.8171 23.1006 44.7305L3.92282 36.333C3.52302 36.1578 3.20862 35.8304 3.04978 35.4238C2.89106 35.0175 2.90022 34.5647 3.07517 34.165C3.25034 33.7652 3.57778 33.4508 3.98435 33.292ZM4.68064 24.3389C4.89665 24.3433 5.10969 24.3909 5.30759 24.4775L23.8584 32.5996L42.3506 24.501C42.5493 24.4092 42.7646 24.3582 42.9834 24.3506C43.2021 24.343 43.4204 24.3784 43.625 24.4561C43.8296 24.5338 44.0172 24.6518 44.1758 24.8027C44.3343 24.9537 44.4611 25.1354 44.5488 25.3359C44.6364 25.5363 44.6833 25.7521 44.6865 25.9707C44.6897 26.1896 44.6492 26.4073 44.5674 26.6104C44.4855 26.8133 44.3639 26.9979 44.2099 27.1533C44.0559 27.3087 43.8721 27.432 43.6699 27.5156L24.4912 35.916C24.2927 36.0076 24.0778 36.0588 23.8593 36.0664C23.6407 36.074 23.4223 36.0376 23.2177 35.96C23.0717 35.9045 22.9347 35.8281 22.8105 35.7344L3.98728 27.4922C3.78949 27.4056 3.61053 27.2807 3.46091 27.125C3.31127 26.9692 3.19288 26.7852 3.11423 26.584C3.03558 26.3827 2.99754 26.1673 3.00193 25.9512C3.00632 25.7352 3.05295 25.5221 3.13962 25.3242C3.22634 25.1263 3.35192 24.9476 3.50779 24.7979C3.66367 24.6481 3.84748 24.5298 4.0488 24.4512C4.24996 24.3726 4.46473 24.3345 4.68064 24.3389ZM23.8261 5.29688C24.1524 5.29609 24.4753 5.36211 24.7754 5.49024L43.2959 13.4268C43.7183 13.6036 44.0789 13.9028 44.331 14.2852C44.583 14.6675 44.7149 15.1163 44.7109 15.5742C44.7069 16.0323 44.5674 16.4794 44.3086 16.8574C44.0498 17.2354 43.6834 17.5278 43.2578 17.6973L24.7383 25.2822C24.1568 25.5236 23.5006 25.5236 22.917 25.2822L4.39743 17.6973C3.97146 17.5278 3.60556 17.2348 3.34665 16.8565C3.08773 16.4779 2.94687 16.0299 2.94333 15.5713C2.93989 15.1129 3.07321 14.6636 3.32615 14.2813C3.57914 13.8989 3.9409 13.6009 4.36423 13.4248L22.8838 5.49024C23.1817 5.36319 23.502 5.2971 23.8261 5.29688ZM7.80075 15.5332L23.8281 22.0986L39.8525 15.5332L23.8252 8.66505L7.80075 15.5332Z" fill="#AEFF21"/>
</svg>
