<svg width="104" height="104" viewBox="0 0 104 104" fill="none" xmlns="http://www.w3.org/2000/svg">
<foreignObject x="-8" y="-8" width="120" height="120"><div xmlns="http://www.w3.org/1999/xhtml" style="backdrop-filter:blur(4px);clip-path:url(#bgblur_0_500_1873_clip_path);height:100%;width:100%"></div></foreignObject><circle data-figma-bg-blur-radius="8" cx="52" cy="52" r="52" fill="url(#paint0_radial_500_1873)" fill-opacity="0.2"/>
<circle cx="52" cy="52" r="31.8025" fill="white" stroke="#E4E4E4" stroke-width="0.395062"/>
<path d="M40.3196 63.4442C34.6528 59.5077 33.3835 53.9494 37.1393 47.9749C41.0134 41.8161 46.6731 38.2768 54.0661 38.0096C62.7569 37.6952 67.6091 45.1307 63.8083 52.9233C61.4355 57.7936 57.5945 61.1603 52.4724 63.0304C49.4887 65.3001 46.1568 65.3001 42.7302 64.4301C41.8832 64.2193 41.0713 63.8872 40.3196 63.4442Z" fill="#1041F2"/>
<path d="M40.3184 63.4444C44.4175 64.7164 48.4763 64.7495 52.4736 63.0307C52.4973 63.4444 52.7862 63.5319 53.1177 63.5177C56.7361 63.3688 60.049 62.3923 62.7344 59.8437C64.0676 58.5788 64.8183 57.0562 64.6265 55.1412C64.4465 53.3538 65.9455 52.0913 66.0142 50.207C68.9837 53.7889 68.8227 58.3944 65.7608 61.6571C61.8629 65.8134 56.8474 67.0546 51.3843 66.9435C47.3728 66.8631 43.5484 66.0498 40.3184 63.4444Z" fill="#3762FE"/>
<path d="M61.0895 50.3463C58.3023 56.8055 52.0175 61.0374 45.4769 60.879C42.6305 60.8081 40.35 59.8742 39.2963 56.9875C38.4793 54.245 39.5189 52.1526 41.6264 50.4551C43.3717 49.0484 45.4177 48.2043 47.5845 47.8331C51.5036 47.1593 55.4322 46.982 59.1903 48.689C59.9765 49.0484 60.8432 49.3557 61.0919 50.344L61.0895 50.3463Z" fill="#FEFEFE"/>
<path d="M61.0901 50.3464C56.1053 46.644 46.195 47.0601 41.5891 51.1597C39.8344 52.7201 38.9842 54.6233 39.2968 56.9876C37.6865 53.505 39.5739 50.7601 41.3097 48.0507C41.9632 47.0317 42.991 46.2515 43.8506 45.3602C46.2826 44.5469 48.7193 43.9866 51.3479 43.9795C54.791 43.9795 58.0826 44.4382 61.2748 45.6912C61.9686 47.2729 61.3387 48.8026 61.0948 50.3464H61.0901Z" fill="#3762FE"/>
<path d="M61.269 45.691C60.9446 46.431 60.4639 46.0078 60.0282 45.8471C54.97 43.9888 49.8787 43.9391 44.7495 45.5468C44.4298 45.6461 44.0438 45.9346 43.8496 45.36C47.2928 42.9083 50.9538 41.102 55.3584 41.4992C58.1456 41.7522 60.2697 42.9367 61.2714 45.691H61.269Z" fill="#FCFCFE"/>
<defs>
<clipPath id="bgblur_0_500_1873_clip_path" transform="translate(8 8)"><circle cx="52" cy="52" r="52"/>
</clipPath><radialGradient id="paint0_radial_500_1873" cx="0" cy="0" r="1" gradientUnits="userSpaceOnUse" gradientTransform="translate(52 52) rotate(90) scale(52)">
<stop stop-color="#D1EEFB" stop-opacity="0"/>
<stop offset="1" stop-color="#7C957F"/>
</radialGradient>
</defs>
</svg>
