<svg width="60" height="60" viewBox="0 0 60 60" fill="none" xmlns="http://www.w3.org/2000/svg">
<path d="M59.7284 36.3174L52.2537 23.2715L55.4561 17.1491C55.7558 16.8925 55.9571 16.54 56.0255 16.1517C56.0939 15.7634 56.0252 15.3635 55.8311 15.0201L51.7187 7.6149C51.562 7.37475 51.3489 7.17646 51.098 7.03727C50.847 6.89808 50.5658 6.8222 50.2788 6.81622H35.0094L31.5921 0.851092C31.4724 0.620656 31.2983 0.422761 31.0849 0.274484C30.8715 0.126208 30.6251 0.032003 30.3671 0H22.3025C22.009 0.00613183 21.7221 0.0876727 21.4695 0.236753C21.2168 0.385833 21.0069 0.59742 20.86 0.851092V1.17555L13.2303 14.219H5.91313C5.61591 14.2108 5.32169 14.2802 5.05953 14.4203C4.79737 14.5604 4.57632 14.7662 4.4182 15.0177L0.200871 22.4703C0.0687558 22.7355 0 23.0277 0 23.3239C0 23.6201 0.0687558 23.9123 0.200871 24.1775L7.78306 37.3282L4.3657 43.2934C4.23479 43.5576 4.16669 43.8484 4.16669 44.1432C4.16669 44.438 4.23479 44.7288 4.3657 44.993L8.26303 51.8118C8.57802 52.3359 9.1455 52.6579 9.75797 52.6604H25.0273L28.7097 59.0498C28.85 59.2863 29.0438 59.4867 29.2756 59.6349C29.5074 59.7831 29.7708 59.8751 30.0446 59.9034H38.6943C38.9873 59.8968 39.2736 59.8151 39.5258 59.666C39.778 59.517 39.9875 59.3056 40.1342 59.0523L47.6614 45.8991H54.3861C54.6814 45.8736 54.9665 45.7784 55.2177 45.6213C55.469 45.4642 55.6792 45.2497 55.8311 44.9955L59.7259 38.1269C59.9033 37.8579 59.9979 37.543 59.9979 37.2209C59.9979 36.8989 59.9033 36.5839 59.7259 36.3149L59.7284 36.3174ZM50.2788 37.171L46.3814 29.9804L30.3671 58.1463L25.9873 50.9582H9.97546L13.8203 43.9847H21.9875L5.96813 15.9261H14.3503L22.3049 1.76208L26.3098 8.73804L22.1975 15.9261H54.2286L50.1738 23.0593L58.236 37.1685H50.2813L50.2788 37.171Z" fill="#605BEC"/>
<path d="M29.2947 40.9098L39.5117 24.8389H19.0251L29.2947 40.9098Z" fill="#605BEC"/>
</svg>
