<svg width="24" height="23" viewBox="0 0 24 23" fill="none" xmlns="http://www.w3.org/2000/svg">
<g filter="url(#filter0_d_500_2108)">
<path d="M8.65926 16.7037C8.93173 17.4704 10.0139 17.4763 10.2948 16.7126L12.4332 10.8972C12.5212 10.6578 12.7098 10.4692 12.9492 10.3812L18.6781 8.27457C19.4515 7.99019 19.4324 6.88984 18.6497 6.6324L4.96943 2.13296C4.28276 1.90711 3.63634 2.56903 3.87839 3.25017L8.65926 16.7037Z" fill="#4541F0"/>
<path d="M5.02393 1.96777C4.19991 1.69676 3.4239 2.49123 3.71436 3.30859L8.49561 16.7617C8.82256 17.6818 10.1205 17.6889 10.4575 16.7725L12.5962 10.957C12.6666 10.7656 12.8178 10.6143 13.0093 10.5439L18.7378 8.4375C19.6658 8.09625 19.6429 6.77573 18.7036 6.4668L5.02393 1.96777Z" stroke="white" stroke-width="0.347826"/>
</g>
<defs>
<filter id="filter0_d_500_2108" x="-0.000231266" y="0.000128508" width="23.0737" height="22.8471" filterUnits="userSpaceOnUse" color-interpolation-filters="sRGB">
<feFlood flood-opacity="0" result="BackgroundImageFix"/>
<feColorMatrix in="SourceAlpha" type="matrix" values="0 0 0 0 0 0 0 0 0 0 0 0 0 0 0 0 0 0 127 0" result="hardAlpha"/>
<feOffset dy="1.73913"/>
<feGaussianBlur stdDeviation="1.73913"/>
<feComposite in2="hardAlpha" operator="out"/>
<feColorMatrix type="matrix" values="0 0 0 0 1 0 0 0 0 1 0 0 0 0 1 0 0 0 0.1 0"/>
<feBlend mode="normal" in2="BackgroundImageFix" result="effect1_dropShadow_500_2108"/>
<feBlend mode="normal" in="SourceGraphic" in2="effect1_dropShadow_500_2108" result="shape"/>
</filter>
</defs>
</svg>
