<svg preserveAspectRatio="none" width="100%" height="100%" overflow="visible" style="display: block;" viewBox="0 0 44.3887 28.0001" fill="none" xmlns="http://www.w3.org/2000/svg">
<path id="Union" d="M22.1943 0C34.4519 6.99073e-05 44.3887 4.72059 44.3887 10.543C44.3881 14.8441 38.9639 18.5394 31.1885 20.1787C29.6862 20.6621 26.7876 21.6941 25.5137 22.8174C24.3296 23.8616 23.1156 26.4663 22.5391 27.8164C22.4332 28.0634 21.964 28.0605 21.8613 27.8125C21.3108 26.4827 20.1448 23.9378 18.874 22.8174C17.6005 21.6946 14.7039 20.6633 13.2012 20.1797C5.42491 18.5406 0.000615676 14.8444 0 10.543C0 4.72055 9.93662 0 22.1943 0ZM21.8467 7.76855C13.427 7.84773 6.65859 10.7964 6.6582 14.4238C6.65852 16.6145 9.12731 18.5572 12.9375 19.7705C12.9716 19.7092 13.0312 19.6554 13.1201 19.627C14.5973 19.155 17.5771 18.1072 18.874 16.9639C20.1555 15.8339 21.2964 9.1387 21.8467 7.76855ZM22.5459 7.76855C23.1042 9.14602 24.2588 15.8573 25.5137 16.9639C26.8097 18.1065 29.7913 19.1549 31.2686 19.627C31.3573 19.6553 31.4161 19.7093 31.4502 19.7705C35.2606 18.5572 37.7302 16.6146 37.7305 14.4238C37.7301 10.7971 30.9635 7.84876 22.5459 7.76855Z" fill="var(--fill-0, white)"/>
</svg>
