<svg width="18" height="18" viewBox="0 0 18 18" fill="none" xmlns="http://www.w3.org/2000/svg">
<g clip-path="url(#clip0_992_611)">
<path d="M9 0C13.9706 0 18 4.02937 18 9C18 13.9706 13.9706 18 9 18C4.02937 18 0 13.9706 0 9C0 4.02937 4.02937 0 9 0ZM11.9839 9.75H6.01613C6.18188 13.5784 7.59487 16.5 9 16.5C10.4047 16.5 11.8181 13.5784 11.9839 9.75ZM4.51463 9.75L1.53712 9.75037C1.81238 12.5201 3.59438 14.8466 6.05212 15.8985C5.16825 14.3914 4.6095 12.201 4.51463 9.75037V9.75ZM16.4629 9.75037H13.4854C13.3905 12.2014 12.8317 14.3914 11.9479 15.8981C14.4056 14.847 16.1876 12.5201 16.4629 9.75037ZM6.0525 2.10188L5.96925 2.13787C3.55388 3.20587 1.809 5.51138 1.5375 8.25H4.515C4.60988 5.799 5.16863 3.60862 6.0525 2.10188ZM9 1.5L8.94375 1.5015C7.55775 1.578 6.18 4.473 6.01613 8.25H11.9839C11.8181 4.422 10.4051 1.5 9 1.5ZM11.9479 2.1015L12.003 2.19712C12.855 3.70012 13.3924 5.85 13.485 8.25H16.4625C16.1876 5.47988 14.4052 3.15338 11.9475 2.1015H11.9479Z" fill="#1A1A1A"/>
</g>
<defs>
<clipPath id="clip0_992_611">
<rect width="18" height="18" fill="white"/>
</clipPath>
</defs>
</svg>
