<svg width="44" height="26" viewBox="0 0 44 26" fill="none" xmlns="http://www.w3.org/2000/svg">
<path d="M21.5146 0C33.3964 0.000121355 43.0289 4.57491 43.0293 10.2188C43.0293 14.788 36.7158 18.656 28.0068 19.9639C26.9178 20.3181 25.2132 20.7341 23.9404 21.9844C22.7232 23.1803 22.1887 24.8114 21.7676 25.8574C21.6904 26.049 21.3475 26.0467 21.2725 25.8545C20.8704 24.8243 20.3101 23.1793 19.0908 21.9844C17.8175 20.7366 16.1154 20.3191 15.0264 19.9648C6.31504 18.6576 0 14.7888 0 10.2188C0.000411435 4.57484 9.63264 0 21.5146 0ZM21.5146 7.34375C13.7073 7.34375 7.37815 10.2553 7.37793 13.8467C7.37793 16.3197 10.3787 18.4697 14.7969 19.5693C14.821 19.5466 14.8503 19.5264 14.8877 19.5137C15.9665 19.1481 17.7734 18.7646 19.0908 17.4502C21.1024 15.4431 20.8667 11.3429 21.2666 10.3125C21.3422 10.1186 21.6926 10.1186 21.7686 10.3125C22.174 11.3486 21.9297 15.4431 23.9404 17.4502C25.2576 18.7648 27.0647 19.148 28.1436 19.5137C28.1801 19.5261 28.2086 19.5462 28.2324 19.5684C32.6501 18.4686 35.6514 16.3195 35.6514 13.8467C35.6511 10.2554 29.3217 7.34393 21.5146 7.34375Z" fill="black"/>
</svg>
