<svg width="26" height="161" viewBox="0 0 26 161" fill="none" xmlns="http://www.w3.org/2000/svg">
<path d="M16.073 151.419C17.469 150.188 20.6776 149.06 22.2673 148.552C22.5775 148.453 22.5776 148.085 22.2673 147.986C20.6774 147.478 17.468 146.349 16.073 145.119C14.7164 143.923 13.4702 1.64087 12.8723 0.202301C12.7603 -0.0671844 12.2438 -0.0666351 12.1328 0.203094C11.5435 1.63461 10.312 143.898 8.92678 145.119C7.53085 146.35 4.32252 147.478 2.73271 147.986C2.42243 148.085 2.42243 148.453 2.73271 148.552C4.32252 149.06 7.53085 150.188 8.92678 151.419C10.2946 152.625 11.5495 155.365 12.142 156.796C12.2526 157.063 12.7578 157.066 12.8715 156.8C13.4921 155.347 14.7984 152.543 16.073 151.419Z" fill="black"/>
<path d="M5.42918 155.062C5.98759 155.627 7.27103 156.145 7.90692 156.378C8.03102 156.424 8.03103 156.593 7.90694 156.639C7.27095 156.872 5.98719 157.39 5.42918 157.955C4.88656 158.504 4.38808 159.747 4.14893 160.407C4.10413 160.531 3.89754 160.531 3.85312 160.407C3.6174 159.75 3.1248 158.516 2.57071 157.955C2.01234 157.39 0.729009 156.872 0.0930844 156.639C-0.0310282 156.593 -0.0310281 156.424 0.0930845 156.378C0.72901 156.145 2.01234 155.627 2.57071 155.062C3.11783 154.508 3.6198 153.25 3.85681 152.593C3.90102 152.47 4.10313 152.469 4.1486 152.591C4.39684 153.258 4.91937 154.546 5.42918 155.062Z" fill="#98EF00"/>
<path d="M23.4292 138.062C23.9876 138.627 25.271 139.145 25.9069 139.378C26.031 139.424 26.031 139.593 25.9069 139.639C25.271 139.872 23.9872 140.39 23.4292 140.955C22.8866 141.504 22.3881 142.747 22.1489 143.407C22.1041 143.531 21.8975 143.531 21.8531 143.407C21.6174 142.75 21.1248 141.516 20.5707 140.955C20.0123 140.39 18.729 139.872 18.0931 139.639C17.969 139.593 17.969 139.424 18.0931 139.378C18.729 139.145 20.0123 138.627 20.5707 138.062C21.1178 137.508 21.6198 136.25 21.8568 135.593C21.901 135.47 22.1031 135.469 22.1486 135.591C22.3968 136.258 22.9194 137.546 23.4292 138.062Z" fill="#98EF00"/>
</svg>
