<svg width="26" height="38" viewBox="0 0 26 38" fill="none" xmlns="http://www.w3.org/2000/svg">
<path d="M16.073 27.4192C17.469 26.1883 20.6776 25.0602 22.2673 24.5524C22.5775 24.4533 22.5776 24.0851 22.2673 23.9859C20.6774 23.4778 17.468 22.3492 16.073 21.1193C14.7164 19.9231 13.4702 1.64087 12.8723 0.202297C12.7603 -0.0671806 12.2438 -0.0666466 12.1328 0.203083C11.5435 1.6346 10.312 19.8979 8.92678 21.1193C7.53085 22.35 4.32252 23.4781 2.73271 23.986C2.42243 24.0851 2.42243 24.4534 2.73271 24.5525C4.32252 25.0604 7.53085 26.1884 8.92678 27.4192C10.2946 28.6252 11.5495 31.3648 12.142 32.7961C12.2526 33.0631 12.7578 33.0663 12.8715 32.8001C13.4921 31.3468 14.7984 28.543 16.073 27.4192Z" fill="black"/>
<path d="M5.42918 32.062C5.98759 32.6272 7.27103 33.1453 7.90692 33.3785C8.03102 33.424 8.03103 33.5931 7.90694 33.6386C7.27095 33.872 5.98719 34.3902 5.42918 34.9551C4.88656 35.5044 4.38808 36.7467 4.14893 37.4073C4.10413 37.5311 3.89754 37.5308 3.85312 37.407C3.6174 36.7496 3.1248 35.516 2.57071 34.9551C2.01234 34.3899 0.729009 33.8718 0.0930844 33.6386C-0.0310282 33.5931 -0.0310281 33.424 0.0930845 33.3784C0.72901 33.1452 2.01234 32.6272 2.57071 32.062C3.11783 31.5081 3.6198 30.25 3.85681 29.5927C3.90102 29.4701 4.10313 29.4687 4.1486 29.5909C4.39684 30.2583 4.91937 31.5459 5.42918 32.062Z" fill="#98EF00"/>
<path d="M23.4292 15.062C23.9876 15.6272 25.271 16.1453 25.9069 16.3785C26.031 16.424 26.031 16.5931 25.9069 16.6386C25.271 16.872 23.9872 17.3902 23.4292 17.9551C22.8866 18.5044 22.3881 19.7467 22.1489 20.4073C22.1041 20.5311 21.8975 20.5308 21.8531 20.407C21.6174 19.7496 21.1248 18.516 20.5707 17.9551C20.0123 17.3899 18.729 16.8718 18.0931 16.6386C17.969 16.5931 17.969 16.424 18.0931 16.3784C18.729 16.1452 20.0123 15.6272 20.5707 15.062C21.1178 14.5081 21.6198 13.25 21.8568 12.5927C21.901 12.4701 22.1031 12.4687 22.1486 12.5909C22.3968 13.2583 22.9194 14.5459 23.4292 15.062Z" fill="#98EF00"/>
</svg>
