<svg width="155" height="97" viewBox="0 0 155 97" fill="none" xmlns="http://www.w3.org/2000/svg">
<path d="M74.7061 12.5137C77.7097 11.5378 81.4336 11.458 85.0273 12.124C88.621 12.7901 92.069 14.1991 94.5234 16.1865L151.276 62.1445C153.409 63.8718 154.424 65.735 154.424 67.4297C154.424 69.6253 152.717 71.6233 149.315 72.7285L79.8623 95.2949C76.8586 96.2709 73.1339 96.3516 69.54 95.6855C65.9463 95.0194 62.4983 93.6096 60.0439 91.6221L3.29102 45.665C1.15762 43.9375 0.144358 42.0729 0.144531 40.3779C0.145004 38.1827 1.8521 36.1851 5.25293 35.0801L74.7061 12.5137Z" fill="white" stroke="black" stroke-width="0.288645"/>
<path d="M74.8057 0.9375C77.7919 -0.00824067 81.473 -0.0806233 85.0273 0.578125C88.5957 1.23949 92.0197 2.63427 94.4707 4.59961V15.7803C91.9879 13.8529 88.5967 12.4916 85.0801 11.8398C81.5263 11.1812 77.8322 11.2441 74.8057 12.1816V0.9375Z" fill="url(#paint0_linear_915_1452)" stroke="black" stroke-width="0.288645" stroke-linejoin="round"/>
<path d="M74.5161 12.2715L5.35205 34.7441V23.502L74.5161 1.03027V12.2715Z" fill="url(#paint1_linear_915_1452)" stroke="black" stroke-width="0.288645" stroke-linejoin="round"/>
<path d="M5.06348 34.8389C2.45396 35.7084 0.779871 37.1252 0.144531 38.8018V28.833C0.144752 26.6788 1.78853 24.7156 5.06348 23.5986V34.8389Z" fill="url(#paint2_linear_915_1452)" stroke="black" stroke-width="0.288645" stroke-linejoin="round"/>
<path d="M151.223 50.5537V61.7285L94.7593 16.0049V4.83105L151.223 50.5537Z" fill="url(#paint3_linear_915_1452)" stroke="black" stroke-width="0.288645" stroke-linejoin="round"/>
<path d="M0.144531 30.4746C0.591599 31.7668 1.5606 33.0747 3.05566 34.2979V45.4668C1.08423 43.795 0.144392 42.0098 0.144531 40.3789V30.4746Z" fill="url(#paint4_linear_915_1452)" stroke="black" stroke-width="0.288645" stroke-linejoin="round"/>
<path d="M151.512 50.7959C153.484 52.4674 154.423 54.2531 154.423 55.8838V65.7881C153.976 64.4961 153.007 63.1878 151.512 61.9648V50.7959Z" fill="url(#paint5_linear_915_1452)" stroke="black" stroke-width="0.288645" stroke-linejoin="round"/>
<path d="M59.8086 80.2568V91.4316L3.34473 45.708V34.5342L59.8086 80.2568Z" fill="url(#paint6_linear_915_1452)" stroke="black" stroke-width="0.288645" stroke-linejoin="round"/>
<path d="M154.423 67.4297C154.424 69.5842 152.78 71.547 149.504 72.6641V61.4229C152.114 60.553 153.788 59.137 154.423 57.46V67.4297Z" fill="url(#paint7_linear_915_1452)" stroke="black" stroke-width="0.288645" stroke-linejoin="round"/>
<path d="M149.215 72.7607L80.0508 95.2334V83.9912L149.215 61.5195V72.7607Z" fill="url(#paint8_linear_915_1452)" stroke="black" stroke-width="0.288645" stroke-linejoin="round"/>
<path d="M60.0972 80.4824C62.5798 82.4097 65.9704 83.7711 69.4868 84.4229C73.041 85.0816 76.7356 85.0179 79.7622 84.0801V95.3242C76.7758 96.2702 73.0942 96.3444 69.5396 95.6855C65.9714 95.0242 62.5481 93.6283 60.0972 91.6631V80.4824Z" fill="url(#paint9_linear_915_1452)" stroke="black" stroke-width="0.288645" stroke-linejoin="round"/>
<defs>
<linearGradient id="paint0_linear_915_1452" x1="94.6146" y1="8.03725" x2="74.6611" y2="8.03725" gradientUnits="userSpaceOnUse">
<stop stop-color="#DBD4D4"/>
<stop offset="0.5" stop-color="#D8D7D7"/>
<stop offset="1" stop-color="#D9D6D6"/>
</linearGradient>
<linearGradient id="paint1_linear_915_1452" x1="74.6606" y1="17.8873" x2="5.20752" y2="17.8873" gradientUnits="userSpaceOnUse">
<stop stop-color="#D9D6D6"/>
<stop offset="1" stop-color="#D9D6D6"/>
</linearGradient>
<linearGradient id="paint2_linear_915_1452" x1="5.20817" y1="31.888" x2="0" y2="31.888" gradientUnits="userSpaceOnUse">
<stop stop-color="#D9D6D6"/>
<stop offset="0.5" stop-color="#DBD4D4"/>
<stop offset="1" stop-color="#D7D7D7"/>
</linearGradient>
<linearGradient id="paint3_linear_915_1452" x1="151.368" y1="33.28" x2="94.6147" y2="33.28" gradientUnits="userSpaceOnUse">
<stop stop-color="#DBD4D4"/>
<stop offset="1" stop-color="#DBD4D4"/>
</linearGradient>
<linearGradient id="paint4_linear_915_1452" x1="3.20023" y1="37.3052" x2="0" y2="37.3052" gradientUnits="userSpaceOnUse">
<stop stop-color="#DBD4D4"/>
<stop offset="0.5" stop-color="#DAD5D5"/>
<stop offset="1" stop-color="#D7D7D7"/>
</linearGradient>
<linearGradient id="paint5_linear_915_1452" x1="154.568" y1="58.9581" x2="151.368" y2="58.9581" gradientUnits="userSpaceOnUse">
<stop stop-color="#D7D7D7"/>
<stop offset="0.5" stop-color="#DAD5D5"/>
<stop offset="1" stop-color="#DBD4D4"/>
</linearGradient>
<linearGradient id="paint6_linear_915_1452" x1="59.953" y1="62.9831" x2="3.2002" y2="62.9831" gradientUnits="userSpaceOnUse">
<stop stop-color="#DBD4D4"/>
<stop offset="1" stop-color="#DBD4D4"/>
</linearGradient>
<linearGradient id="paint7_linear_915_1452" x1="154.568" y1="64.3748" x2="149.36" y2="64.3748" gradientUnits="userSpaceOnUse">
<stop stop-color="#D7D7D7"/>
<stop offset="0.5" stop-color="#DBD4D4"/>
<stop offset="1" stop-color="#D9D6D6"/>
</linearGradient>
<linearGradient id="paint8_linear_915_1452" x1="149.359" y1="78.3766" x2="79.9062" y2="78.3766" gradientUnits="userSpaceOnUse">
<stop stop-color="#D9D6D6"/>
<stop offset="1" stop-color="#D9D6D6"/>
</linearGradient>
<linearGradient id="paint9_linear_915_1452" x1="79.9061" y1="88.2257" x2="59.9526" y2="88.2257" gradientUnits="userSpaceOnUse">
<stop stop-color="#D9D6D6"/>
<stop offset="0.5" stop-color="#D8D7D7"/>
<stop offset="1" stop-color="#DBD4D4"/>
</linearGradient>
</defs>
</svg>
