<svg width="13" height="13" viewBox="0 0 13 13" fill="none" xmlns="http://www.w3.org/2000/svg">
<path d="M2.76873 7.92829C3.0206 7.67643 3.42886 7.67643 3.68072 7.92829L5.61556 9.86313C5.86743 10.115 5.86743 10.5233 5.61556 10.7751L3.68072 12.71C3.42886 12.9618 3.0206 12.9618 2.76873 12.71C2.51686 12.4581 2.51686 12.0498 2.76873 11.798L3.60262 10.9641H1.93484C1.42169 10.9641 0.929699 10.7601 0.566847 10.3972C0.203994 10.0344 0 9.54239 0 9.02924V7.73935C0 7.38315 0.288752 7.0944 0.644945 7.0944C1.00114 7.0944 1.28989 7.38315 1.28989 7.73935V9.02924C1.28989 9.20029 1.35789 9.36428 1.47884 9.48523C1.59979 9.60618 1.76379 9.67418 1.93484 9.67418H3.60262L2.76873 8.84029C2.51686 8.58842 2.51686 8.18016 2.76873 7.92829ZM8.38429 8.38429V11.609H11.609V8.38429H8.38429ZM1.28989 1.28989V4.51462H4.51462V1.28989H1.28989ZM7.73935 1.28989C7.38315 1.28989 7.0944 1.00114 7.0944 0.644945C7.0944 0.288752 7.38315 0 7.73935 0C8.08145 0 8.40944 0.135996 8.65134 0.377898C8.89324 0.619799 9.02924 0.94779 9.02924 1.28989V4.51462C9.02924 4.85672 8.89324 5.18471 8.65134 5.42661C8.40944 5.66851 8.08145 5.80451 7.73935 5.80451C7.38315 5.80451 7.0944 5.51576 7.0944 5.15956C7.0944 4.80337 7.38315 4.51462 7.73935 4.51462V1.28989ZM10.9641 1.28989C10.6079 1.28989 10.3191 1.00114 10.3191 0.644945C10.3191 0.288752 10.6079 0 10.9641 0C11.3062 0 11.6342 0.135996 11.8761 0.377898C12.118 0.6198 12.254 0.947792 12.254 1.28989V4.51462C12.254 4.85672 12.118 5.18471 11.8761 5.42661C11.6342 5.66851 11.3062 5.80451 10.9641 5.80451C10.6079 5.80451 10.3191 5.51576 10.3191 5.15956C10.3191 4.80337 10.6079 4.51462 10.9641 4.51462V1.28989ZM12.8989 11.609C12.8989 12.3214 12.3214 12.8989 11.609 12.8989H8.38429C7.6719 12.8989 7.0944 12.3214 7.0944 11.609V8.38429C7.0944 7.6719 7.6719 7.0944 8.38429 7.0944H11.609C12.3214 7.0944 12.8989 7.6719 12.8989 8.38429V11.609ZM5.80451 4.51462C5.80451 5.22701 5.22701 5.80451 4.51462 5.80451H1.28989C0.577504 5.80451 0 5.22701 0 4.51462V1.28989C0 0.577504 0.577504 0 1.28989 0H4.51462C5.22701 0 5.80451 0.577504 5.80451 1.28989V4.51462Z" fill="white"/>
</svg>
