<svg width="10" height="10" viewBox="0 0 10 10" fill="none" xmlns="http://www.w3.org/2000/svg">
<path d="M9.09091 4.09091C9.09091 3.83987 8.8874 3.63636 8.63636 3.63636H4.09091C3.83987 3.63636 3.63636 3.83987 3.63636 4.09091V8.63636C3.63636 8.8874 3.83987 9.09091 4.09091 9.09091H8.63636C8.8874 9.09091 9.09091 8.8874 9.09091 8.63636V4.09091ZM6.36364 1.36364C6.36364 1.11467 6.15805 0.909091 5.90909 0.909091H1.36364C1.11467 0.909091 0.909091 1.11467 0.909091 1.36364V5.90909C0.909091 6.15805 1.11467 6.36364 1.36364 6.36364C1.61467 6.36364 1.81818 6.56714 1.81818 6.81818C1.81818 7.06922 1.61467 7.27273 1.36364 7.27273C0.612598 7.27273 0 6.66013 0 5.90909V1.36364C0 0.612598 0.612598 0 1.36364 0H5.90909C6.66013 0 7.27273 0.612598 7.27273 1.36364C7.27273 1.61467 7.06922 1.81818 6.81818 1.81818C6.56714 1.81818 6.36364 1.61467 6.36364 1.36364ZM10 8.63636C10 9.38948 9.38948 10 8.63636 10H4.09091C3.33779 10 2.72727 9.38948 2.72727 8.63636V4.09091C2.72727 3.33779 3.33779 2.72727 4.09091 2.72727H8.63636C9.38948 2.72727 10 3.33779 10 4.09091V8.63636Z" fill="white"/>
</svg>
