<svg width="19" height="19" viewBox="0 0 19 19" fill="none" xmlns="http://www.w3.org/2000/svg">
<path d="M16.3636 2.72727C16.3636 2.2252 15.9566 1.81818 15.4545 1.81818H2.72727C2.2252 1.81818 1.81818 2.2252 1.81818 2.72727V15.4545C1.81818 15.9566 2.2252 16.3636 2.72727 16.3636H15.4545C15.9566 16.3636 16.3636 15.9566 16.3636 15.4545V2.72727ZM11.8182 9.09091C12.3203 9.09091 12.7273 9.49792 12.7273 10C12.7273 10.5021 12.3203 10.9091 11.8182 10.9091H8.18182C7.67974 10.9091 7.27273 10.5021 7.27273 10C7.27273 9.49792 7.67974 9.09091 8.18182 9.09091H11.8182ZM3.9027 3.9027C4.25772 3.54768 4.83319 3.54768 5.18821 3.9027L7.00639 5.72088C7.36141 6.0759 7.36141 6.65137 7.00639 7.00639L5.18821 8.82457C4.83319 9.1796 4.25772 9.1796 3.9027 8.82457C3.54768 8.46955 3.54768 7.89408 3.9027 7.53906L5.07812 6.36364L3.9027 5.18821C3.54768 4.83319 3.54768 4.25772 3.9027 3.9027ZM18.1818 15.4545C18.1818 16.9608 16.9608 18.1818 15.4545 18.1818H2.72727C1.22104 18.1818 0 16.9608 0 15.4545V2.72727C0 1.22104 1.22104 0 2.72727 0H15.4545C16.9608 0 18.1818 1.22104 18.1818 2.72727V15.4545Z" fill="white" fill-opacity="0.4"/>
</svg>
