<svg width="8" height="15" viewBox="0 0 8 15" fill="none" xmlns="http://www.w3.org/2000/svg">
<path d="M0 12.8C0 11.9163 0.716344 11.2 1.6 11.2C2.48365 11.2 3.2 11.9163 3.2 12.8C3.2 13.6836 2.48365 14.4 1.6 14.4C0.716344 14.4 0 13.6836 0 12.8ZM4.8 12.8C4.8 11.9163 5.51634 11.2 6.4 11.2C7.28365 11.2 7.99999 11.9163 7.99999 12.8C7.99999 13.6836 7.28365 14.4 6.4 14.4C5.51634 14.4 4.8 13.6836 4.8 12.8ZM0 7.2C0 6.31634 0.716344 5.6 1.6 5.6C2.48365 5.6 3.2 6.31634 3.2 7.2C3.2 8.08365 2.48365 8.79999 1.6 8.79999C0.716344 8.79999 0 8.08365 0 7.2ZM4.8 7.2C4.8 6.31634 5.51634 5.6 6.4 5.6C7.28365 5.6 7.99999 6.31634 7.99999 7.2C7.99999 8.08365 7.28365 8.79999 6.4 8.79999C5.51634 8.79999 4.8 8.08365 4.8 7.2ZM0 1.6C0 0.716344 0.716344 0 1.6 0C2.48365 0 3.2 0.716344 3.2 1.6C3.2 2.48365 2.48365 3.2 1.6 3.2C0.716344 3.2 0 2.48365 0 1.6ZM4.8 1.6C4.8 0.716344 5.51634 0 6.4 0C7.28365 0 7.99999 0.716344 7.99999 1.6C7.99999 2.48365 7.28365 3.2 6.4 3.2C5.51634 3.2 4.8 2.48365 4.8 1.6Z" fill="#3C3C43" fill-opacity="0.18"/>
</svg>
