<svg width="13" height="13" viewBox="0 0 13 13" fill="none" xmlns="http://www.w3.org/2000/svg">
<path d="M11.52 1.92C11.52 1.56654 11.2335 1.28 10.88 1.28H1.92C1.56654 1.28 1.28 1.56654 1.28 1.92V10.88C1.28 11.2335 1.56654 11.52 1.92 11.52H10.88C11.2335 11.52 11.52 11.2335 11.52 10.88V1.92ZM8.31999 8.95999V3.2C8.31999 2.84654 8.60653 2.56 8.95999 2.56C9.31346 2.56 9.59999 2.84654 9.59999 3.2V8.95999C9.59999 9.31346 9.31346 9.59999 8.95999 9.59999C8.60653 9.59999 8.31999 9.31346 8.31999 8.95999ZM3.2 7.67999V3.2C3.2 2.84654 3.48654 2.56 3.84 2.56C4.19346 2.56 4.48 2.84654 4.48 3.2V7.67999C4.48 8.03346 4.19346 8.31999 3.84 8.31999C3.48654 8.31999 3.2 8.03346 3.2 7.67999ZM5.76 5.76V3.2C5.76 2.84654 6.04653 2.56 6.4 2.56C6.75346 2.56 7.04 2.84654 7.04 3.2V5.76C7.04 6.11346 6.75346 6.4 6.4 6.4C6.04653 6.4 5.76 6.11346 5.76 5.76ZM12.8 10.88C12.8 11.9404 11.9404 12.8 10.88 12.8H1.92C0.859613 12.8 0 11.9404 0 10.88V1.92C0 0.859613 0.859613 0 1.92 0H10.88C11.9404 0 12.8 0.859613 12.8 1.92V10.88Z" fill="white"/>
</svg>
