<svg width="16" height="16" viewBox="0 0 16 16" fill="none" xmlns="http://www.w3.org/2000/svg">
<path d="M4.81164 0.632287C5.18062 0.471293 5.61023 0.639891 5.77125 1.00887C5.93216 1.37782 5.76361 1.80747 5.39467 1.96847C4.4125 2.39708 3.55009 3.05956 2.88318 3.89837C2.21633 4.73711 1.76528 5.72662 1.56906 6.78003C1.37287 7.83357 1.43743 8.91951 1.7577 9.94218C2.07798 10.9648 2.64433 11.8932 3.4064 12.6466C4.16843 13.4 5.10316 13.9554 6.12932 14.264C7.15559 14.5725 8.24237 14.6252 9.2936 14.417C10.3446 14.2088 11.3286 13.7464 12.1596 13.0702C12.9908 12.3937 13.6437 11.5236 14.061 10.5366C14.2178 10.1658 14.6456 9.99259 15.0164 10.1493C15.3872 10.3061 15.5611 10.7339 15.4043 11.1047C14.8942 12.311 14.0959 13.3739 13.0801 14.2006C12.0642 15.0274 10.861 15.5927 9.57622 15.8472C8.29159 16.1016 6.96416 16.0377 5.71003 15.6607C4.45577 15.2835 3.31272 14.6046 2.38131 13.6838C1.44987 12.7629 0.758152 11.6278 0.366701 10.3778C-0.0247109 9.12803 -0.104359 7.80134 0.135342 6.51379C0.375115 5.22619 0.926979 4.01666 1.74204 2.99144C2.55717 1.96619 3.61117 1.15615 4.81164 0.632287ZM8.81807 0.00726108C10.659 0.191711 12.3796 1.00709 13.688 2.31516C14.9964 3.62326 15.8124 5.3435 15.9973 7.18438C16.0853 8.06252 15.3628 8.71325 14.58 8.71348L8.7476 8.7142C8.36106 8.71412 7.98943 8.56109 7.71609 8.28778C7.44268 8.01437 7.28897 7.64294 7.28897 7.25628V1.4246C7.28914 0.642217 7.93893 -0.0805667 8.81807 0.00726108ZM14.5373 7.25556C14.3717 5.77758 13.71 4.39851 12.6572 3.34595C11.6043 2.29333 10.2251 1.63165 8.74688 1.4666V7.25628L14.5373 7.25556Z" fill="white"/>
</svg>
