<svg width="13" height="13" viewBox="0 0 13 13" fill="none" xmlns="http://www.w3.org/2000/svg">
<path d="M8.95999 10.8799C9.31346 10.8799 9.59999 11.1665 9.59999 11.5199C9.59999 11.8734 9.31346 12.1599 8.95999 12.1599H0.64C0.286538 12.1599 0 11.8734 0 11.5199C0 11.1665 0.286538 10.8799 0.64 10.8799H8.95999ZM11.52 11.5199V3.83995C11.52 3.67021 11.4525 3.50747 11.3325 3.38745C11.2274 3.2824 11.0897 3.2176 10.9431 3.20307L10.88 3.19995H8.58499L9.41249 4.02745C9.66243 4.27738 9.66243 4.68251 9.41249 4.93245C9.16256 5.18238 8.75743 5.18238 8.50749 4.93245L6.5875 3.01245C6.33756 2.76251 6.33756 2.35739 6.5875 2.10745L8.50749 0.187452C8.75743 -0.0624838 9.16256 -0.0624838 9.41249 0.187452C9.66243 0.437387 9.66243 0.842516 9.41249 1.09245L8.58499 1.91995H10.88C11.3892 1.91995 11.8774 2.12238 12.2375 2.48245C12.5976 2.84252 12.8 3.33073 12.8 3.83995V11.5199C12.8 11.8734 12.5135 12.1599 12.16 12.1599C11.8065 12.1599 11.52 11.8734 11.52 11.5199ZM8.95999 6.39995C9.31346 6.39995 9.59999 6.68649 9.59999 7.03995C9.59999 7.39341 9.31346 7.67995 8.95999 7.67995H0.64C0.286538 7.67995 0 7.39341 0 7.03995C0 6.68649 0.286538 6.39995 0.64 6.39995H8.95999ZM4.48 1.91995C4.83346 1.91995 5.12 2.20649 5.12 2.55995C5.12 2.91341 4.83346 3.19995 4.48 3.19995H0.64C0.286538 3.19995 0 2.91341 0 2.55995C0 2.20649 0.286538 1.91995 0.64 1.91995H4.48Z" fill="white"/>
</svg>
