<svg width="14" height="13" viewBox="0 0 14 13" fill="none" xmlns="http://www.w3.org/2000/svg">
<path d="M1.07379 10.8907L0.00342161 0.706806C-0.0335252 0.35528 0.221491 0.0403612 0.573017 0.00341433C0.924543 -0.0335325 1.23946 0.221484 1.27641 0.57301L2.34678 10.7569C2.36452 10.9257 2.44864 11.0805 2.58055 11.1873C2.71246 11.2941 2.88136 11.3442 3.05017 11.3265L13.2341 10.2561C13.5856 10.2192 13.9005 10.4742 13.9375 10.8257C13.9744 11.1773 13.7194 11.4922 13.3679 11.5291L3.18397 12.5995C2.67754 12.6527 2.17084 12.5024 1.77511 12.182C1.37937 11.8615 1.12702 11.3971 1.07379 10.8907ZM4.12246 9.28323L3.92177 7.37374C3.88482 7.02222 4.13984 6.7073 4.49136 6.67035C4.84289 6.63341 5.15781 6.88842 5.19476 7.23995L5.39545 9.14943C5.4324 9.50095 5.17738 9.81587 4.82586 9.85282C4.47433 9.88977 4.15941 9.63475 4.12246 9.28323ZM7.30493 8.94873L6.50215 1.31081C6.46521 0.959286 6.72022 0.644367 7.07175 0.60742C7.42327 0.570473 7.73819 0.825489 7.77514 1.17702L8.57792 8.81494C8.61487 9.16646 8.35985 9.48138 8.00832 9.51833C7.6568 9.55528 7.34188 9.30026 7.30493 8.94873ZM10.4874 8.61424L9.95221 3.52229C9.91527 3.17077 10.1703 2.85585 10.5218 2.8189C10.8733 2.78196 11.1883 3.03697 11.2252 3.3885L11.7604 8.48045C11.7973 8.83197 11.5423 9.14689 11.1908 9.18384C10.8393 9.22079 10.5243 8.96577 10.4874 8.61424Z" fill="white"/>
</svg>
