<svg width="7" height="16" viewBox="0 0 7 16" fill="none" xmlns="http://www.w3.org/2000/svg">
<path d="M1.55145 14.7395V12.4122C1.55145 11.9837 1.89877 11.6364 2.32721 11.6364C2.75566 11.6364 3.10298 11.9837 3.10298 12.4122V14.7395C3.10298 15.1679 2.75566 15.5152 2.32721 15.5152C1.89877 15.5152 1.55145 15.1679 1.55145 14.7395ZM4.6545 14.7395V9.30911C4.6545 8.88066 5.00183 8.53334 5.43027 8.53334C5.85871 8.53334 6.20603 8.88066 6.20603 9.30911V14.7395C6.20603 15.1679 5.85871 15.5152 5.43027 15.5152C5.00183 15.5152 4.6545 15.1679 4.6545 14.7395ZM7.75756 14.7395V10.8606C7.75756 10.4322 8.10488 10.0849 8.53332 10.0849C8.96177 10.0849 9.30909 10.4322 9.30909 10.8606V14.7395C9.30909 15.1679 8.96177 15.5152 8.53332 15.5152C8.10488 15.5152 7.75756 15.1679 7.75756 14.7395ZM10.8606 14.7395V9.30911C10.8606 8.88066 11.2079 8.53334 11.6364 8.53334C12.0648 8.53334 12.4121 8.88066 12.4121 9.30911V14.7395C12.4121 15.1679 12.0648 15.5152 11.6364 15.5152C11.2079 15.5152 10.8606 15.1679 10.8606 14.7395ZM13.9637 14.7395V6.20605C13.9637 5.77761 14.311 5.43029 14.7394 5.43029C15.1679 5.43029 15.5152 5.77761 15.5152 6.20605V14.7395C15.5152 15.1679 15.1679 15.5152 14.7394 15.5152C14.311 15.5152 13.9637 15.1679 13.9637 14.7395ZM15.7425 0.227216C16.0454 -0.0757386 16.5365 -0.0757386 16.8395 0.227216C17.1424 0.530171 17.1424 1.02124 16.8395 1.32419L10.1326 8.03182L10.1318 8.03107C10.0239 8.13909 9.89633 8.22556 9.7553 8.2841C9.61393 8.34276 9.46215 8.37274 9.30909 8.37274C9.15603 8.37274 9.00424 8.34276 8.86287 8.2841C8.72168 8.2255 8.5936 8.13927 8.4856 8.03107L6.20603 5.75226L1.32417 10.6334C1.02121 10.9363 0.530131 10.9363 0.227195 10.6334C-0.0757227 10.3304 -0.0757408 9.83932 0.227195 9.53638L5.38406 4.38028L5.4689 4.30301C5.67595 4.13342 5.93681 4.04013 6.20679 4.04013L6.32118 4.04543C6.58747 4.07181 6.83781 4.18952 7.02877 4.38028H7.02952L9.30909 6.65984L15.7425 0.227216Z" fill="white"/>
</svg>
