<svg width="13" height="13" viewBox="0 0 13 13" fill="none" xmlns="http://www.w3.org/2000/svg">
<path d="M10.6364 2.95455C10.6364 2.6282 10.3718 2.36364 10.0455 2.36364H2.95455C2.6282 2.36364 2.36364 2.6282 2.36364 2.95455V10.0455C2.36364 10.3718 2.6282 10.6364 2.95455 10.6364H10.0455C10.3718 10.6364 10.6364 10.3718 10.6364 10.0455V2.95455ZM4.72727 4.72727V8.27273H8.27273V4.72727H4.72727ZM9.45455 8.27273C9.45455 8.92543 8.92543 9.45455 8.27273 9.45455H4.72727C4.07457 9.45455 3.54545 8.92543 3.54545 8.27273V4.72727C3.54545 4.07457 4.07457 3.54545 4.72727 3.54545H8.27273C8.92543 3.54545 9.45455 4.07457 9.45455 4.72727V8.27273ZM12.4091 2.95455C12.7354 2.95455 13 3.2191 13 3.54545C13 3.8718 12.7354 4.13636 12.4091 4.13636H11.8182V5.90909H12.4091C12.7354 5.90909 13 6.17365 13 6.5C13 6.82635 12.7354 7.09091 12.4091 7.09091H11.8182V8.86364H12.4091C12.7354 8.86364 13 9.12819 13 9.45455C13 9.7809 12.7354 10.0455 12.4091 10.0455H11.8182C11.8182 11.0245 11.0245 11.8182 10.0455 11.8182V12.4091C10.0455 12.7354 9.7809 13 9.45455 13C9.12819 13 8.86364 12.7354 8.86364 12.4091V11.8182H7.09091V12.4091C7.09091 12.7354 6.82635 13 6.5 13C6.17365 13 5.90909 12.7354 5.90909 12.4091V11.8182H4.13636V12.4091C4.13636 12.7354 3.8718 13 3.54545 13C3.2191 13 2.95455 12.7354 2.95455 12.4091V11.8182C1.9755 11.8182 1.18182 11.0245 1.18182 10.0455H0.590909C0.264559 10.0455 0 9.7809 0 9.45455C0 9.12819 0.264559 8.86364 0.590909 8.86364H1.18182V7.09091H0.590909C0.264559 7.09091 0 6.82635 0 6.5C0 6.17365 0.264559 5.90909 0.590909 5.90909H1.18182V4.13636H0.590909C0.264559 4.13636 0 3.8718 0 3.54545C0 3.2191 0.264559 2.95455 0.590909 2.95455H1.18182C1.18182 1.9755 1.9755 1.18182 2.95455 1.18182V0.590909C2.95455 0.264559 3.2191 0 3.54545 0C3.8718 0 4.13636 0.264559 4.13636 0.590909V1.18182H5.90909V0.590909C5.90909 0.264559 6.17365 0 6.5 0C6.82635 0 7.09091 0.264559 7.09091 0.590909V1.18182H8.86364V0.590909C8.86364 0.264559 9.12819 0 9.45455 0C9.7809 0 10.0455 0.264559 10.0455 0.590909V1.18182C11.0245 1.18182 11.8182 1.9755 11.8182 2.95455H12.4091Z" fill="white"/>
</svg>
