<svg width="48" height="48" viewBox="0 0 48 48" fill="none" xmlns="http://www.w3.org/2000/svg">
<path d="M36.5678 18.6997C35.0895 18.6959 33.6454 18.254 32.4182 17.4297C31.1909 16.6055 30.2355 15.436 29.6726 14.069C29.1097 12.702 28.9647 11.1989 29.2558 9.74946C29.5469 8.30006 30.2611 6.96946 31.3081 5.9258C32.3552 4.88214 33.6881 4.17225 35.1384 3.88583C36.5887 3.59941 38.0914 3.74931 39.4566 4.3166C40.8218 4.88388 41.9882 5.84309 42.8084 7.07302C43.6287 8.30295 44.0659 9.74841 44.065 11.2268C44.0637 12.2098 43.8687 13.183 43.4912 14.0906C43.1137 14.9983 42.561 15.8227 41.8648 16.5167C41.1686 17.2107 40.3424 17.7607 39.4335 18.1352C38.5246 18.5098 37.5509 18.7016 36.5678 18.6997ZM36.5678 7.62096C35.8555 7.62478 35.1603 7.83951 34.5698 8.23803C33.9794 8.63656 33.5203 9.20104 33.2503 9.86024C32.9804 10.5194 32.9117 11.2438 33.053 11.942C33.1943 12.6402 33.5393 13.2809 34.0443 13.7832C34.5494 14.2856 35.1919 14.6271 35.8908 14.7646C36.5897 14.9022 37.3137 14.8297 37.9715 14.5562C38.6292 14.2827 39.1912 13.8206 39.5866 13.228C39.982 12.6355 40.193 11.9391 40.193 11.2268C40.193 10.7516 40.0991 10.2811 39.9167 9.84239C39.7342 9.40365 39.4669 9.00529 39.13 8.6702C38.7931 8.33512 38.3934 8.06992 37.9536 7.88986C37.5139 7.70979 37.043 7.61841 36.5678 7.62096Z" fill="#AEFF21"/>
<path d="M29.541 38.7076H15.0694V34.8356H29.541C30.1378 34.8552 30.7324 34.7547 31.2896 34.5399C31.8467 34.3251 32.3549 34.0005 32.7841 33.5853C33.2132 33.1701 33.5544 32.6728 33.7874 32.123C34.0205 31.5733 34.1406 30.9823 34.1406 30.3852C34.1406 29.7881 34.0205 29.1971 33.7874 28.6473C33.5544 28.0976 33.2132 27.6003 32.7841 27.1851C32.3549 26.7699 31.8467 26.4452 31.2896 26.2305C30.7324 26.0157 30.1378 25.9151 29.541 25.9348H17.3878C15.2153 25.8824 13.1494 24.9826 11.6314 23.4275C10.1134 21.8725 9.26367 19.7855 9.26367 17.6124C9.26367 15.4393 10.1134 13.3523 11.6314 11.7973C13.1494 10.2423 15.2153 9.34243 17.3878 9.29004H32.3482V13.162H17.3878C16.2328 13.2001 15.138 13.6857 14.3345 14.5161C13.531 15.3466 13.0817 16.4569 13.0817 17.6124C13.0817 18.768 13.531 19.8782 14.3345 20.7087C15.138 21.5391 16.2328 22.0247 17.3878 22.0628H29.541C30.6508 22.036 31.7547 22.2315 32.7879 22.6377C33.821 23.0439 34.7625 23.6527 35.5568 24.4281C36.3512 25.2036 36.9825 26.1301 37.4135 27.1531C37.8445 28.1761 38.0665 29.2751 38.0665 30.3852C38.0665 31.4953 37.8445 32.5942 37.4135 33.6172C36.9825 34.6403 36.3512 35.5668 35.5568 36.3422C34.7625 37.1177 33.821 37.7264 32.7879 38.1326C31.7547 38.5389 30.6508 38.7343 29.541 38.7076Z" fill="#AEFF21"/>
<path d="M11.4076 44.2467C9.92977 44.2457 8.48543 43.8067 7.25714 42.9849C6.02886 42.1632 5.07178 40.9958 4.50691 39.6302C3.94204 38.2646 3.79475 36.7622 4.08364 35.3129C4.37253 33.8636 5.08464 32.5325 6.12995 31.4879C7.17525 30.4432 8.50681 29.732 9.95629 29.444C11.4058 29.1561 12.9081 29.3043 14.2733 29.8701C15.6385 30.4358 16.8054 31.3937 17.6263 32.6225C18.4472 33.8513 18.8854 35.2959 18.8854 36.7737C18.8828 38.7557 18.094 40.6558 16.6921 42.0568C15.2901 43.4578 13.3896 44.2454 11.4076 44.2467ZM11.4076 33.1728C10.6956 33.1737 9.99985 33.3857 9.40831 33.782C8.81677 34.1783 8.35598 34.741 8.08418 35.3991C7.81237 36.0571 7.74175 36.781 7.88124 37.4792C8.02073 38.1774 8.36407 38.8186 8.86786 39.3217C9.37166 39.8248 10.0133 40.1673 10.7117 40.3059C11.4101 40.4444 12.1339 40.3728 12.7916 40.1001C13.4493 39.8274 14.0114 39.3659 14.4068 38.7738C14.8023 38.1818 15.0134 37.4857 15.0134 36.7737C15.0057 35.8225 14.6224 34.9128 13.947 34.2428C13.2717 33.5729 12.3589 33.197 11.4076 33.197V33.1728Z" fill="#AEFF21"/>
</svg>
