<svg width="12" height="13" viewBox="0 0 12 13" fill="none" xmlns="http://www.w3.org/2000/svg">
<path d="M1.86162 9.83927e-06C2.18809 0.00111812 2.50863 0.0885635 2.79061 0.253098L10.2093 4.58036H10.2099C10.4908 4.74335 10.7242 4.97733 10.8864 5.25869C11.0486 5.54005 11.1338 5.85929 11.1341 6.18406C11.1343 6.50878 11.0493 6.82782 10.8876 7.10943C10.7461 7.35586 10.5504 7.56613 10.3156 7.72433L10.2129 7.78896L2.79061 12.1186C2.50868 12.2831 2.18801 12.37 1.86162 12.3711C1.53526 12.3722 1.21442 12.2872 0.931412 12.1247C0.648351 11.9621 0.412973 11.7277 0.249464 11.4451C0.0859518 11.1625 -9.66829e-05 10.8414 8.1521e-08 10.5149V1.85619C-9.66578e-05 1.52978 0.0860347 1.20914 0.249464 0.92659C0.412976 0.643989 0.648306 0.409089 0.931412 0.246454C1.2144 0.083926 1.53528 -0.00105249 1.86162 9.83927e-06ZM1.23705 10.5155C1.23703 10.6244 1.26591 10.7312 1.32041 10.8254C1.37491 10.9196 1.45318 10.9977 1.54752 11.0519C1.64181 11.1061 1.74866 11.1344 1.85739 11.1341C1.96617 11.1337 2.07329 11.1049 2.16726 11.0501L9.58956 6.72044L9.59017 6.71983C9.68362 6.66534 9.761 6.58713 9.81486 6.49332C9.86869 6.39953 9.89706 6.2934 9.89701 6.18527C9.89692 6.07701 9.86833 5.97039 9.81426 5.87661C9.7602 5.78288 9.68255 5.70501 9.58896 5.6507L9.58775 5.6501L2.16726 1.32162C2.07326 1.26677 1.96622 1.23743 1.85739 1.23706C1.74868 1.23674 1.64179 1.26507 1.54752 1.31921C1.45321 1.37339 1.37491 1.45159 1.32041 1.54572C1.26593 1.63987 1.23705 1.74682 1.23705 1.85559V10.5155Z" fill="black"/>
</svg>
