<svg width="11" height="12" viewBox="0 0 11 12" fill="none" xmlns="http://www.w3.org/2000/svg">
<path d="M1.80577 9.54408e-06C2.12245 0.00108458 2.43337 0.0859065 2.70689 0.245505L9.90301 4.44295H9.9036C10.1761 4.60105 10.4025 4.82801 10.5598 5.10092C10.7171 5.37384 10.7998 5.68351 10.8 5.99853C10.8003 6.31352 10.7178 6.62298 10.561 6.89614C10.4237 7.13518 10.2339 7.33914 10.0061 7.4926L9.90653 7.55529L2.70689 11.7551C2.43342 11.9146 2.12237 11.9989 1.80577 12C1.4892 12.001 1.17798 11.9186 0.90347 11.7609C0.6289 11.6032 0.400583 11.3759 0.24198 11.1018C0.0833732 10.8277 -9.37823e-05 10.5162 7.90753e-08 10.1995V1.8005C-9.3758e-05 1.48389 0.0834537 1.17286 0.24198 0.898792C0.400586 0.624669 0.628856 0.396816 0.90347 0.23906C1.17797 0.0814082 1.48922 -0.00102091 1.80577 9.54408e-06ZM1.19994 10.2001C1.19992 10.3056 1.22793 10.4093 1.28079 10.5006C1.33366 10.592 1.40958 10.6678 1.5011 10.7204C1.59255 10.7729 1.6962 10.8004 1.80167 10.8C1.90718 10.7997 2.01109 10.7718 2.10224 10.7186L9.30187 6.51882L9.30246 6.51823C9.3931 6.46538 9.46816 6.38952 9.52041 6.29852C9.57263 6.20754 9.60015 6.10459 9.6001 5.9997C9.60001 5.8947 9.57227 5.79128 9.51983 5.7003C9.46739 5.60939 9.39207 5.53385 9.30128 5.48117L9.30011 5.48059L2.10224 1.28198C2.01106 1.22877 1.90723 1.20031 1.80167 1.19995C1.69622 1.19964 1.59254 1.22711 1.5011 1.27963C1.40961 1.33219 1.33366 1.40804 1.28079 1.49935C1.22796 1.59067 1.19994 1.69441 1.19994 1.79992V10.2001Z" fill="white"/>
</svg>
