<svg width="72" height="72" viewBox="0 0 72 72" fill="none" xmlns="http://www.w3.org/2000/svg">
<foreignObject x="-16" y="-16" width="104" height="104"><div xmlns="http://www.w3.org/1999/xhtml" style="backdrop-filter:blur(8px);clip-path:url(#bgblur_0_500_1841_clip_path);height:100%;width:100%"></div></foreignObject><circle data-figma-bg-blur-radius="16" cx="36" cy="36" r="36" fill="url(#paint0_radial_500_1841)" fill-opacity="0.3"/>
<circle cx="24" cy="24" r="23.8519" transform="matrix(-1 0 0 1 60 12)" fill="white" stroke="#E4E4E4" stroke-width="0.296296"/>
<path d="M40.368 40.374H43.3676L37.9126 48L37.7808 47.9539L38.9664 42.9415H36.6216C36.885 41.7256 37.138 40.5835 37.412 39.3346C36.7454 39.5349 36.1632 39.6508 35.6323 39.8827C34.4822 40.3832 33.4481 40.1698 32.5155 39.4295C31.8877 38.9468 31.3104 38.4017 30.7924 37.8026C30.2655 37.1729 30.4328 36.8133 31.2311 36.6789C32.9212 36.3944 34.6166 36.1441 36.3146 35.8279H35.2489C33.788 35.8134 32.3258 35.7897 30.8649 35.7845C29.9678 35.7845 29.3355 35.3168 28.794 34.6661C28.1101 33.8364 27.626 32.8606 27.3792 31.814C27.2133 31.1448 27.3964 30.9604 28.0866 31.1211C29.8321 31.5269 31.5749 31.9471 33.3204 32.3555C34.2127 32.5753 35.1158 32.7485 36.0261 32.8745C34.9723 32.5241 33.8974 32.2027 32.8527 31.8206C31.2588 31.2305 29.6911 30.5876 28.0972 29.9764C27.8722 29.895 27.6667 29.7674 27.4941 29.6018C27.3214 29.4361 27.1853 29.2362 27.0947 29.0147C26.4742 27.5999 26.0105 26.1443 26 24.5819C26 24.0129 26.1857 23.8732 26.6745 24.1103C31.6526 26.5118 36.7994 28.5431 41.962 30.5244C42.4599 30.7275 42.9343 30.9842 43.3768 31.2898C44.2344 31.8602 44.5137 32.5794 44.0697 33.4831C43.1581 35.3379 42.1557 37.1479 41.1822 38.9724C40.9384 39.4216 40.6671 39.8576 40.368 40.374Z" fill="#59ADF8"/>
<defs>
<clipPath id="bgblur_0_500_1841_clip_path" transform="translate(16 16)"><circle cx="36" cy="36" r="36"/>
</clipPath><radialGradient id="paint0_radial_500_1841" cx="0" cy="0" r="1" gradientUnits="userSpaceOnUse" gradientTransform="translate(36 36) rotate(90) scale(36)">
<stop stop-color="#D1EEFB" stop-opacity="0"/>
<stop offset="1" stop-color="#14512C"/>
</radialGradient>
</defs>
</svg>
