<svg width="36" height="36" viewBox="0 0 36 36" fill="none" xmlns="http://www.w3.org/2000/svg">
<rect width="36" height="36" rx="18" fill="#3C3C43" fill-opacity="0.29"/>
<path d="M11.2354 21.3877C11.2726 21.2854 11.4423 21.2846 11.4805 21.3867C11.6887 21.9448 12.127 23.0216 12.5547 23.4531C13.0232 23.9257 14.1003 24.3587 14.6338 24.5537C14.7378 24.5918 14.7379 24.7334 14.6338 24.7715C14.1002 24.9666 13.0228 25.3998 12.5547 25.8721C12.0996 26.3314 11.6811 27.3695 11.4805 27.9219C11.4429 28.0254 11.2697 28.0254 11.2324 27.9219C11.0346 27.3722 10.6211 26.341 10.1562 25.8721C9.68778 25.3996 8.61169 24.9665 8.07812 24.7715C7.974 24.7334 7.974 24.5918 8.07812 24.5537C8.61149 24.3588 9.68756 23.9256 10.1562 23.4531C10.6153 22.99 11.0365 21.9373 11.2354 21.3877ZM17.7109 10.126C17.8 9.8799 18.2073 9.87676 18.2988 10.1221C18.7987 11.4613 19.8505 14.0455 20.877 15.0811C22.0013 16.2153 24.5858 17.2546 25.8662 17.7227C26.1161 17.814 26.1161 18.1538 25.8662 18.2451C24.5855 18.7134 22.0005 19.7533 20.877 20.8867C19.7845 21.9891 18.7813 24.482 18.2998 25.8076C18.2096 26.056 17.7935 26.0552 17.7041 25.8066C17.2295 24.4874 16.2368 22.0123 15.1211 20.8867C13.9968 19.7526 11.4133 18.7132 10.1328 18.2451C9.8829 18.1538 9.8829 17.814 10.1328 17.7227C11.4132 17.2547 13.9966 16.2151 15.1211 15.0811C16.2226 13.9697 17.2336 11.4451 17.7109 10.126ZM24.5244 8.07715C24.5617 7.97485 24.7314 7.97404 24.7695 8.07617C24.9778 8.6342 25.416 9.71108 25.8438 10.1426C26.3123 10.6152 27.3894 11.0482 27.9229 11.2432C28.0269 11.2813 28.0269 11.4229 27.9229 11.4609C27.3892 11.6561 26.3119 12.0893 25.8438 12.5615C25.3887 13.0209 24.9702 14.059 24.7695 14.6113C24.7319 14.7148 24.5587 14.7149 24.5215 14.6113C24.3237 14.0616 23.9101 13.0305 23.4453 12.5615C22.9768 12.089 21.9007 11.656 21.3672 11.4609C21.2631 11.4229 21.2631 11.2812 21.3672 11.2432C21.9006 11.0482 22.9766 10.615 23.4453 10.1426C23.9043 9.67948 24.3256 8.62675 24.5244 8.07715Z" fill="#8E8E93"/>
</svg>
