<svg width="64" height="64" viewBox="0 0 64 64" fill="none" xmlns="http://www.w3.org/2000/svg">
<rect width="64" height="64" rx="16" fill="black"/>
<path d="M44.8762 34.1946V29.7314C44.886 29.0712 44.7157 28.4198 44.382 27.8405C44.0482 27.2611 43.5623 26.7734 42.9713 26.4246L38.914 24.202C39.3333 22.4696 39.01 20.65 38.0151 19.1437C37.0202 17.6374 35.4353 16.5678 33.609 16.17C31.7827 15.7722 29.8647 16.079 28.2768 17.0227C26.6889 17.9665 25.5613 19.47 25.142 21.2024C25.0213 21.6943 24.9574 22.1972 24.9515 22.7022C24.9701 23.2204 25.0467 23.7353 25.1801 24.2382L21.199 26.4969C20.6067 26.8443 20.1197 27.3318 19.7858 27.9114C19.4519 28.4911 19.2824 29.1432 19.2941 29.8037V34.3573C18.3855 34.5749 17.5322 34.963 16.7844 35.4989C16.0367 36.0347 15.4099 36.7073 14.9409 37.4769C14.472 38.2466 14.1704 39.0976 14.0542 39.9796C13.9379 40.8617 14.0092 41.7569 14.264 42.6124C14.5187 43.4679 14.9517 44.2662 15.5373 44.9602C16.1229 45.6542 16.8492 46.2297 17.6734 46.6528C18.4975 47.0759 19.4027 47.338 20.3354 47.4235C21.2681 47.509 22.2095 47.4163 23.1038 47.1507C24.2904 46.8225 25.3626 46.1985 26.2087 45.3437L30.0184 47.494C30.6031 47.8013 31.2554 47.9746 31.9232 48C32.591 47.9739 33.2431 47.8007 33.8281 47.4941L37.9235 45.2353C39.2269 46.5029 41.0077 47.2274 42.8742 47.2495C44.7407 47.2715 46.54 46.5892 47.8763 45.3528C49.2125 44.1164 49.9762 42.427 49.9995 40.6564C50.0227 38.8858 49.3035 37.1789 48.0001 35.9113C47.1138 35.0319 45.9853 34.4059 44.7428 34.1043L44.8762 34.1946ZM31.9804 19.3593C32.6773 19.3558 33.3598 19.5483 33.9414 19.9127C34.523 20.277 34.9776 20.7968 35.2478 21.4063C35.518 22.0157 35.5916 22.6875 35.4593 23.3367C35.327 23.9858 34.9948 24.5832 34.5047 25.0532C34.0145 25.5232 33.3884 25.8448 32.7056 25.9773C32.0227 26.1098 31.3138 26.0473 30.6685 25.7976C30.0231 25.5478 29.4703 25.1222 29.08 24.5745C28.6896 24.0267 28.4793 23.3815 28.4755 22.7203C28.4754 21.8352 28.8435 20.9857 29.4997 20.3564C30.1559 19.7272 31.0473 19.3689 31.9804 19.3593ZM21.2371 43.9523C20.5393 43.9523 19.8572 43.7558 19.2773 43.3877C18.6973 43.0195 18.2457 42.4964 17.9795 41.8845C17.7134 41.2726 17.6447 40.5995 17.7822 39.9506C17.9197 39.3016 18.2573 38.706 18.752 38.2392C19.2468 37.7724 19.8765 37.4555 20.5613 37.3285C21.2461 37.2016 21.9553 37.2704 22.5989 37.5262C23.2424 37.7819 23.7915 38.2132 24.1764 38.7654C24.5613 39.3175 24.7648 39.9656 24.761 40.6275C24.761 41.0656 24.6697 41.4995 24.4924 41.904C24.3151 42.3086 24.0552 42.6759 23.7277 42.9849C23.4002 43.2939 23.0116 43.5384 22.5842 43.7044C22.1567 43.8705 21.6989 43.9547 21.2371 43.9523ZM32.2851 44.6571C32.2076 44.7017 32.1187 44.7254 32.028 44.7254C31.9373 44.7254 31.8483 44.7017 31.7708 44.6571L27.9611 42.5429C28.167 41.9595 28.2824 41.3508 28.304 40.7359C28.3001 39.2072 27.744 37.7259 26.7284 36.5389C25.7128 35.3519 24.2991 34.5309 22.7228 34.2127V29.7314C22.7217 29.6429 22.7459 29.5559 22.7928 29.4795C22.8398 29.4031 22.9078 29.3403 22.9895 29.2977L26.7992 27.1655C27.4552 27.8528 28.2543 28.4037 29.1461 28.7831C30.0379 29.1626 31.003 29.3624 31.9804 29.37C32.9666 29.3708 33.9417 29.1731 34.8414 28.7899C35.7411 28.4068 36.5449 27.847 37.1996 27.1474L41.0093 29.2977C41.0909 29.3421 41.1596 29.4049 41.2095 29.4805C41.2593 29.5562 41.2887 29.6424 41.295 29.7314V34.1946C39.7862 34.5567 38.4478 35.3861 37.4921 36.5513C36.5363 37.7166 36.0178 39.1511 36.0186 40.6275C36.0206 41.2398 36.1169 41.8486 36.3044 42.4345L32.2851 44.6571ZM43.1428 43.9524C42.4442 43.9559 41.7602 43.7625 41.1778 43.3965C40.5954 43.0306 40.1407 42.5087 39.8717 41.8971C39.6026 41.2855 39.5312 40.6119 39.6665 39.9617C39.8019 39.3116 40.1379 38.7143 40.6319 38.2457C41.1259 37.7771 41.7555 37.4583 42.4409 37.3299C43.1263 37.2015 43.8364 37.2692 44.4811 37.5245C45.1258 37.7797 45.6759 38.211 46.0617 38.7635C46.4475 39.316 46.6514 39.9648 46.6477 40.6275C46.6426 41.5079 46.2718 42.3508 45.6156 42.9733C44.9593 43.5958 44.0708 43.9476 43.1428 43.9524Z" fill="white"/>
</svg>
