<svg width="64" height="64" viewBox="0 0 64 64" fill="none" xmlns="http://www.w3.org/2000/svg">
<rect width="64" height="64" rx="16" fill="black"/>
<path d="M37.2555 44.2747C37.2555 43.6273 37.6773 43.2039 38.3359 43.2039H45.2647C45.5175 43.2039 45.7964 42.9889 45.7964 42.6786V18.676C45.7964 18.4184 45.5601 18.1406 45.2647 18.1406H26.0781C25.7784 18.1406 25.5341 18.4019 25.5341 18.676V25.0763C25.5341 25.7216 24.9945 26.1466 24.4623 26.1466C23.9301 26.1466 23.3994 25.7221 23.3994 25.0763V18.676C23.3989 17.2575 24.6356 16.0096 26.0781 16.0032C27.0401 15.9989 33.4351 15.9989 45.2647 16.0032C46.7067 16.0101 47.93 17.258 47.93 18.676V42.6786C47.9263 44.0944 46.7045 45.3263 45.2647 45.3332H38.4111C37.753 45.3332 37.2555 44.9226 37.2555 44.2747ZM28.6122 30.9775C30.9053 33.1661 30.9053 36.7043 28.6122 38.8923C26.3415 41.0681 22.6443 41.0836 20.3539 38.9254L20.3187 38.8923C18.0209 36.7006 18.0278 33.1527 20.3347 30.969C21.4322 29.9296 22.9158 29.343 24.4655 29.3356C26.0237 29.3313 27.5184 29.9227 28.6122 30.978V30.9775ZM24.466 32.0014C22.6955 32.0089 21.2653 33.4412 21.2664 35.2042C21.2694 36.0517 21.6045 36.8641 22.1996 37.4674C22.803 38.0643 23.6172 38.3996 24.466 38.4007C24.8847 38.4013 25.2993 38.3191 25.6862 38.159C26.073 37.9988 26.4244 37.7638 26.7201 37.4674C27.019 37.171 27.2563 36.8185 27.4186 36.4301C27.5808 36.0417 27.6648 35.6251 27.6656 35.2042C27.6666 34.7839 27.5835 34.3676 27.4211 33.98C27.2587 33.5923 27.0204 33.241 26.7201 32.9469C26.4268 32.6464 26.0762 32.4079 25.689 32.2455C25.3017 32.0831 24.8859 32.0001 24.466 32.0014ZM17.1239 47.9996C16.8096 48.0009 16.5076 47.8773 16.2844 47.6559C16.0612 47.4346 15.935 47.1338 15.9336 46.8194V42.6679C15.9324 42.4997 15.9679 42.3333 16.0376 42.1802C16.1074 42.0271 16.2096 41.8911 16.3373 41.7816C17.3982 40.7086 18.6782 39.8773 20.09 39.3446C21.4261 38.8615 22.817 38.5463 24.2308 38.406C24.5439 38.3758 24.8562 38.471 25.0993 38.6707C25.3423 38.8705 25.4962 39.1584 25.5272 39.4715C25.5548 39.7763 25.4633 40.08 25.2718 40.3187C25.0802 40.5574 24.8037 40.7127 24.5001 40.7519C23.2808 40.8753 22.08 41.14 20.9219 41.5406C19.9572 41.9085 19.0714 42.4546 18.312 43.1505V46.8194C18.3117 46.975 18.2808 47.129 18.2209 47.2726C18.1609 47.4162 18.0733 47.5465 17.9629 47.6561C17.8525 47.7658 17.7216 47.8525 17.5776 47.9115C17.4337 47.9704 17.2795 48.0003 17.1239 47.9996ZM31.8433 47.9996C31.6836 48.0039 31.5247 47.9757 31.3762 47.9168C31.2277 47.8579 31.0927 47.7695 30.9793 47.657C30.866 47.5444 30.7766 47.41 30.7167 47.2619C30.6567 47.1139 30.6275 46.9552 30.6306 46.7954V43.1388C29.8717 42.4418 28.9858 41.8973 28.0213 41.5347C26.8739 41.1343 25.6832 40.8706 24.474 40.7492C24.3195 40.7354 24.1693 40.6913 24.032 40.6193C23.8946 40.5474 23.7728 40.4491 23.6734 40.33C23.5741 40.2109 23.4993 40.0734 23.4532 39.9254C23.4071 39.7773 23.3906 39.6216 23.4048 39.4672C23.4203 39.3088 23.4676 39.1552 23.5439 39.0156C23.6202 38.8759 23.7239 38.7531 23.8488 38.6545C23.9737 38.5559 24.1171 38.4834 24.2707 38.4416C24.4242 38.3997 24.5846 38.3892 24.7422 38.4108C26.1495 38.5505 27.5334 38.8646 28.8623 39.3456C30.2674 39.8769 31.5411 40.7055 32.5963 41.7747C32.849 42.0003 32.9946 42.3208 32.9978 42.6578V46.7949C33.0013 46.9498 32.9742 47.1039 32.918 47.2483C32.8618 47.3927 32.7776 47.5245 32.6704 47.6364C32.5631 47.7482 32.4349 47.8377 32.2929 47.8999C32.151 47.962 31.9982 47.9955 31.8433 47.9985V47.9996ZM42.064 24.8022C42.064 25.5381 41.5163 26.1354 40.8407 26.1354H31.022C30.3464 26.1354 29.7987 25.5381 29.7987 24.8022C29.7987 24.0663 30.3464 23.469 31.022 23.469H40.8407C41.5163 23.469 42.064 24.0663 42.064 24.8022ZM41.5307 30.6682C41.5307 31.4041 41.0017 32.0014 40.349 32.0014H36.3132C35.6605 32.0014 35.1315 31.4041 35.1315 30.6682C35.1315 29.9323 35.6605 29.335 36.3132 29.335H40.349C41.0017 29.335 41.5307 29.9323 41.5307 30.6682ZM32.5552 47.3676C32.2822 47.9191 31.5948 48.1542 31.0194 47.8929C31.0104 47.8889 31.0016 47.8849 30.9927 47.8807C30.4093 47.6087 30.1667 46.9346 30.4509 46.3758L30.4584 46.3608L34.5043 38.4935C34.7955 37.9389 35.4967 37.7111 36.0801 37.9804C36.6566 38.2663 36.8929 38.9387 36.6145 39.5003L32.5557 47.3676H32.5552Z" fill="white" stroke="white"/>
</svg>
