<svg width="64" height="64" viewBox="0 0 64 64" fill="none" xmlns="http://www.w3.org/2000/svg">
<rect width="64" height="64" rx="16" fill="black"/>
<path fill-rule="evenodd" clip-rule="evenodd" d="M21.5302 37.7441C21.5822 37.6006 21.8196 37.5991 21.873 37.7422C22.1646 38.5235 22.7782 40.0307 23.3769 40.6347C24.0329 41.2963 25.5402 41.9028 26.2871 42.1758C26.4328 42.229 26.4328 42.4271 26.2871 42.4804C25.54 42.7536 24.0323 43.3603 23.3769 44.0215C22.7396 44.6645 22.1539 46.1183 21.873 46.8916C21.8204 47.0364 21.5776 47.0364 21.5253 46.8916C21.2485 46.1221 20.6702 44.6781 20.0195 44.0215C19.3637 43.3599 17.8563 42.7535 17.1093 42.4804C16.9636 42.4272 16.9636 42.229 17.1093 42.1758C17.8562 41.9027 19.3636 41.2963 20.0195 40.6347C20.6621 39.9864 21.2519 38.5135 21.5302 37.7441ZM31.9941 18.9658C32.6679 18.9615 33.6632 19.3028 34.0576 20.3593C34.3983 21.2721 34.9206 22.5904 35.5234 23.8427C36.1533 25.1512 36.7764 26.1822 37.2714 26.6816C37.8376 27.2525 38.9067 27.9084 40.2041 28.539C41.4546 29.1469 42.7461 29.6518 43.6132 29.9687C45.4945 30.6568 45.4956 33.2979 43.6142 33.9863C42.7467 34.3035 41.4542 34.8088 40.2031 35.417C39.0672 35.9691 38.1068 36.5395 37.5058 37.0556L37.2714 37.2734C36.7227 37.8271 36.0911 38.8617 35.4785 40.1299C34.8875 41.3532 34.3909 42.6294 34.0644 43.5283C33.6746 44.6011 32.6664 44.942 32 44.9414C31.3337 44.9406 30.3254 44.5972 29.9384 43.5224C29.6172 42.6296 29.1276 41.3635 28.539 40.1455C28.0065 39.0435 27.453 38.1093 26.9433 37.5097L26.7275 37.2734C26.1616 36.7025 25.0924 36.0468 23.7949 35.416C22.5445 34.8081 21.2531 34.3034 20.3857 33.9863H20.3847C18.5031 33.298 18.5037 30.6566 20.3857 29.9687C21.2531 29.6517 22.5443 29.1469 23.7949 28.539C25.0925 27.9082 26.1615 27.2525 26.7275 26.6816C27.2814 26.1228 27.9178 25.0752 28.5341 23.7949C29.1285 22.56 29.6266 21.2752 29.9502 20.3808L30.0293 20.1904C30.4556 19.2807 31.3629 18.97 31.9941 18.9658ZM31.6875 25.3125C31.0437 26.6499 30.2012 28.1483 29.2128 29.1455C28.2048 30.1623 26.6778 31.0289 25.3252 31.6865C25.1193 31.7865 24.9128 31.8833 24.708 31.9775C24.9127 32.0716 25.1194 32.1685 25.3252 32.2685C26.6777 32.9261 28.2049 33.7927 29.2128 34.8095C30.2076 35.8132 31.0484 37.2937 31.6904 38.622C31.7991 38.847 31.9032 39.0738 32.0048 39.2978C32.1088 39.0686 32.216 38.8373 32.3271 38.6074C32.968 37.2808 33.8044 35.799 34.7851 34.8095C35.7927 33.7931 37.3201 32.9271 38.6728 32.2695C38.8789 32.1693 39.0859 32.0718 39.291 31.9775C39.0862 31.8834 38.8795 31.7865 38.6738 31.6865C37.3211 31.029 35.7932 30.1623 34.7851 29.1455C33.8432 28.1951 33.0108 26.6914 32.3701 25.3603C32.2486 25.108 32.1315 24.8535 32.0175 24.6015C31.9111 24.8374 31.8015 25.0756 31.6875 25.3125ZM42.1347 17.1084C42.1868 16.965 42.4241 16.9634 42.4775 17.1064C42.7691 17.8876 43.3826 19.3949 43.9814 19.999C44.6373 20.6606 46.1446 21.267 46.8916 21.54C47.0373 21.5933 47.0373 21.7914 46.8916 21.8447C46.1445 22.1179 44.6368 22.7245 43.9814 23.3857C43.3442 24.0286 42.7584 25.4824 42.4775 26.2558C42.4249 26.4007 42.182 26.4008 42.1298 26.2558C41.853 25.4863 41.2747 24.0423 40.624 23.3857C39.9682 22.7241 38.4608 22.1177 37.7138 21.8447C37.568 21.7914 37.568 21.5933 37.7138 21.54C38.4608 21.267 39.9681 20.6606 40.624 19.999C41.2666 19.3507 41.8563 17.8778 42.1347 17.1084Z" fill="white"/>
</svg>
