<svg width="40" height="40" viewBox="0 0 40 40" fill="none" xmlns="http://www.w3.org/2000/svg">
<path d="M35 32.1754H34.168V23.9566C34.168 22.3043 33.3516 20.7613 31.9844 19.8238L24.168 14.4957V7.82383C24.168 6.75351 23.6523 5.7457 22.7812 5.1207C21.9141 4.4957 20.793 4.32383 19.7773 4.66367L9.25 8.17148C7.20312 8.85508 5.83203 10.7613 5.83203 12.9137V32.1793H5C4.07812 32.1793 3.33203 32.9254 3.33203 33.8473C3.33203 34.7691 4.07812 35.5152 5 35.5152H35C35.9219 35.5152 36.668 34.7691 36.668 33.8473C36.668 32.9215 35.9219 32.1754 35 32.1754ZM9.16797 32.1754V12.9137C9.16797 12.1949 9.625 11.5582 10.3086 11.3316L20.8359 7.82383V32.1793H9.16797V32.1754ZM24.168 18.5309L30.1055 22.5777C30.5625 22.8902 30.8359 23.4059 30.8359 23.9566V32.1754H24.168V18.5309Z" fill="white"/>
<path d="M17.5 14.6758H12.5C11.5781 14.6758 10.832 15.4219 10.832 16.3437C10.832 17.2656 11.5781 18.0117 12.5 18.0117H17.5C18.4219 18.0117 19.168 17.2656 19.168 16.3437C19.168 15.4219 18.4219 14.6758 17.5 14.6758ZM17.5 19.6758H12.5C11.5781 19.6758 10.832 20.4219 10.832 21.3438C10.832 22.2656 11.5781 23.0117 12.5 23.0117H17.5C18.4219 23.0117 19.168 22.2656 19.168 21.3438C19.168 20.4219 18.4219 19.6758 17.5 19.6758Z" fill="white"/>
</svg>
