<svg width="20" height="20" viewBox="0 0 20 20" fill="none" xmlns="http://www.w3.org/2000/svg">
<path d="M12.8773 7.08117C14.0017 8.21547 16.586 9.25508 17.8664 9.72308C18.1163 9.81441 18.1163 10.1538 17.8664 10.2451C16.5858 10.7134 14.0009 11.7534 12.8773 12.8869C11.7847 13.9892 10.781 16.4822 10.2994 17.808C10.2092 18.0563 9.79324 18.0558 9.70381 17.8072C9.22917 16.488 8.23729 14.0125 7.1216 12.8869C5.99728 11.7527 3.41322 10.7131 2.13274 10.2451C1.88284 10.1538 1.88284 9.81435 2.13274 9.723C3.41322 9.25496 5.99728 8.21541 7.1216 7.08117C8.22326 5.96974 9.234 3.44508 9.71123 2.12604C9.80026 1.87996 10.2072 1.87709 10.2988 2.1224C10.7986 3.46162 11.8508 6.04553 12.8773 7.08117Z" fill="white"/>
<path d="M17.8441 2.14218C18.3126 2.61481 19.3893 3.04798 19.9228 3.24297C20.027 3.28103 20.027 3.42243 19.9229 3.46049C19.3893 3.65559 18.3122 4.08895 17.8441 4.56125C17.3888 5.02053 16.9706 6.05929 16.7699 6.61167C16.7324 6.71515 16.559 6.71494 16.5218 6.61137C16.324 6.06169 15.9107 5.03024 15.4459 4.56125C14.9774 4.08865 13.9007 3.6555 13.3672 3.46049C13.263 3.42242 13.263 3.281 13.3672 3.24294C13.9007 3.04793 14.9774 2.61478 15.4459 2.14218C15.9049 1.67908 16.326 0.627141 16.5249 0.0775418C16.562 -0.0249909 16.7315 -0.0261891 16.7697 0.0760251C16.9779 0.634034 17.4163 1.71066 17.8441 2.14218Z" fill="white"/>
<path d="M4.555 15.4537C5.02349 15.9263 6.10028 16.3595 6.63378 16.5545C6.7379 16.5926 6.73791 16.7339 6.63379 16.772C6.10021 16.9671 5.02316 17.4005 4.555 17.8728C4.09975 18.3321 3.68153 19.3708 3.48088 19.9232C3.4433 20.0267 3.26997 20.0265 3.23271 19.9229C3.03494 19.3732 2.62166 18.3418 2.15679 17.8728C1.68832 17.4002 0.611627 16.967 0.0780963 16.772C-0.0260322 16.7339 -0.0260321 16.5925 0.0780964 16.5545C0.611627 16.3594 1.68832 15.9263 2.15679 15.4537C2.61581 14.9906 3.03696 13.9387 3.2358 13.3891C3.27289 13.2865 3.44246 13.2853 3.48061 13.3875C3.68888 13.9456 4.12727 15.0222 4.555 15.4537Z" fill="white"/>
</svg>
