<svg width="64" height="64" viewBox="0 0 64 64" fill="none" xmlns="http://www.w3.org/2000/svg">
<rect width="64" height="64" rx="16" fill="black"/>
<path d="M37.2549 44.2747C37.2549 43.6273 37.6767 43.2039 38.3353 43.2039H45.2642C45.5169 43.2039 45.7958 42.9889 45.7958 42.6786V18.676C45.7958 18.4184 45.5596 18.1406 45.2642 18.1406H26.0775C25.7778 18.1406 25.5336 18.4019 25.5336 18.676V25.0763C25.5336 25.7216 24.9939 26.1466 24.4617 26.1466C23.9295 26.1466 23.3989 25.7221 23.3989 25.0763V18.676C23.3984 17.2575 24.635 16.0096 26.0775 16.0032C27.0395 15.9989 33.4346 15.9989 45.2642 16.0032C46.7061 16.0101 47.9295 17.258 47.9295 18.676V42.6786C47.9257 44.0944 46.704 45.3263 45.2642 45.3332H38.4105C37.7525 45.3332 37.2549 44.9226 37.2549 44.2747ZM28.6116 30.9775C30.9047 33.1661 30.9047 36.7043 28.6116 38.8923C26.341 41.0681 22.6438 41.0836 20.3534 38.9254L20.3182 38.8923C18.0203 36.7006 18.0272 33.1527 20.3342 30.969C21.4317 29.9296 22.9152 29.343 24.4649 29.3356C26.0231 29.3313 27.5179 29.9227 28.6116 30.978V30.9775ZM24.4654 32.0014C22.695 32.0089 21.2647 33.4412 21.2658 35.2042C21.2689 36.0517 21.6039 36.8641 22.199 37.4674C22.8025 38.0643 23.6167 38.3996 24.4654 38.4007C24.8841 38.4013 25.2988 38.3191 25.6856 38.159C26.0725 37.9988 26.4239 37.7638 26.7196 37.4674C27.0184 37.171 27.2558 36.8185 27.418 36.4301C27.5803 36.0417 27.6642 35.6251 27.6651 35.2042C27.6661 34.7839 27.5829 34.3676 27.4206 33.98C27.2582 33.5923 27.0198 33.241 26.7196 32.9469C26.4263 32.6464 26.0756 32.4079 25.6884 32.2455C25.3012 32.0831 24.8853 32.0001 24.4654 32.0014ZM17.1233 47.9996C16.809 48.0009 16.5071 47.8773 16.2839 47.6559C16.0607 47.4346 15.9345 47.1338 15.9331 46.8194V42.6679C15.9319 42.4997 15.9674 42.3333 16.0371 42.1802C16.1068 42.0271 16.2091 41.8911 16.3368 41.7816C17.3977 40.7086 18.6777 39.8773 20.0894 39.3446C21.4255 38.8615 22.8165 38.5463 24.2303 38.406C24.5434 38.3758 24.8557 38.471 25.0987 38.6707C25.3417 38.8705 25.4956 39.1584 25.5267 39.4715C25.5543 39.7763 25.4627 40.08 25.2712 40.3187C25.0797 40.5574 24.8031 40.7127 24.4996 40.7519C23.2803 40.8753 22.0795 41.14 20.9213 41.5406C19.9566 41.9085 19.0709 42.4546 18.3115 43.1505V46.8194C18.3112 46.975 18.2802 47.129 18.2203 47.2726C18.1604 47.4162 18.0727 47.5465 17.9624 47.6561C17.852 47.7658 17.7211 47.8525 17.5771 47.9115C17.4331 47.9704 17.2789 48.0003 17.1233 47.9996ZM31.8427 47.9996C31.683 48.0039 31.5241 47.9757 31.3756 47.9168C31.2271 47.8579 31.0921 47.7695 30.9788 47.657C30.8654 47.5444 30.7761 47.41 30.7161 47.2619C30.6562 47.1139 30.6269 46.9552 30.6301 46.7954V43.1388C29.8711 42.4418 28.9853 41.8973 28.0208 41.5347C26.8733 41.1343 25.6827 40.8706 24.4734 40.7492C24.319 40.7354 24.1688 40.6913 24.0314 40.6193C23.894 40.5474 23.7722 40.4491 23.6729 40.33C23.5736 40.2109 23.4987 40.0734 23.4526 39.9254C23.4065 39.7773 23.3901 39.6216 23.4042 39.4672C23.4198 39.3088 23.4671 39.1552 23.5434 39.0156C23.6197 38.8759 23.7234 38.7531 23.8482 38.6545C23.9731 38.5559 24.1166 38.4834 24.2701 38.4416C24.4236 38.3997 24.584 38.3892 24.7417 38.4108C26.149 38.5505 27.5328 38.8646 28.8617 39.3456C30.2668 39.8769 31.5405 40.7055 32.5957 41.7747C32.8485 42.0003 32.9941 42.3208 32.9973 42.6578V46.7949C33.0007 46.9498 32.9736 47.1039 32.9174 47.2483C32.8612 47.3927 32.7771 47.5245 32.6698 47.6364C32.5626 47.7482 32.4343 47.8377 32.2924 47.8999C32.1505 47.962 31.9977 47.9955 31.8427 47.9985V47.9996ZM42.0634 24.8022C42.0634 25.5381 41.5158 26.1354 40.8401 26.1354H31.0215C30.3458 26.1354 29.7982 25.5381 29.7982 24.8022C29.7982 24.0663 30.3458 23.469 31.0215 23.469H40.8401C41.5158 23.469 42.0634 24.0663 42.0634 24.8022ZM41.5302 30.6682C41.5302 31.4041 41.0012 32.0014 40.3484 32.0014H36.3126C35.6599 32.0014 35.1309 31.4041 35.1309 30.6682C35.1309 29.9323 35.6599 29.335 36.3126 29.335H40.3484C41.0012 29.335 41.5302 29.9323 41.5302 30.6682ZM32.5547 47.3676C32.2816 47.9191 31.5942 48.1542 31.0188 47.8929C31.0099 47.8889 31.001 47.8849 30.9922 47.8807C30.4088 47.6087 30.1661 46.9346 30.4504 46.3758L30.4578 46.3608L34.5038 38.4935C34.7949 37.9389 35.4962 37.7111 36.0796 37.9804C36.6561 38.2663 36.8923 38.9387 36.6139 39.5003L32.5552 47.3676H32.5547Z" fill="white"/>
</svg>
