<svg width="64" height="64" viewBox="0 0 64 64" fill="none" xmlns="http://www.w3.org/2000/svg">
<rect width="64" height="64" rx="16" fill="black"/>
<path d="M21.5303 37.7441C21.5823 37.6006 21.8197 37.5991 21.8731 37.7422C22.1647 38.5235 22.7783 40.0307 23.377 40.6348C24.033 41.2964 25.5403 41.9028 26.2872 42.1758C26.4329 42.2291 26.4329 42.4272 26.2872 42.4805C25.5401 42.7536 24.0324 43.3603 23.377 44.0215C22.7397 44.6645 22.154 46.1183 21.8731 46.8916C21.8205 47.0364 21.5777 47.0364 21.5255 46.8916C21.2486 46.1221 20.6703 44.6782 20.0196 44.0215C19.3638 43.3599 17.8564 42.7535 17.1094 42.4805C16.9637 42.4272 16.9637 42.2291 17.1094 42.1758C17.8563 41.9028 19.3637 41.2964 20.0196 40.6348C20.6622 39.9864 21.252 38.5136 21.5303 37.7441ZM31.9981 19.4658C32.4959 19.4628 33.1958 19.6981 33.5284 20.3896L33.5899 20.5342L33.8799 21.2939C34.202 22.1167 34.6142 23.1058 35.0733 24.0596C35.7047 25.3711 36.3573 26.4693 36.9161 27.0332C37.5453 27.6678 38.68 28.3537 39.9854 28.9883C41.2575 29.6066 42.5669 30.1185 43.4424 30.4385C44.8856 30.9668 44.886 32.9884 43.4424 33.5166C42.5667 33.8368 41.2568 34.3483 39.9844 34.9668C38.6786 35.6016 37.5446 36.2878 36.9161 36.9219C36.3057 37.5378 35.6449 38.6359 35.0284 39.9121C34.4272 41.1567 33.9233 42.4502 33.5938 43.3574C33.2973 44.1734 32.5266 44.4419 32.0001 44.4414C31.4736 44.4406 30.7035 44.1697 30.4092 43.3525C30.0849 42.451 29.5883 41.1674 28.9893 39.9277C28.376 38.6586 27.711 37.5557 27.0831 36.9219C26.454 36.2873 25.3191 35.6014 24.0137 34.9668C22.7418 34.3485 21.4324 33.8367 20.5567 33.5166C19.1127 32.9885 19.1125 30.9654 20.5567 30.4375L21.2872 30.1631C22.0844 29.8553 23.0596 29.4521 24.0137 28.9883C25.3193 28.3536 26.454 27.6678 27.0831 27.0332C27.6989 26.4117 28.3643 25.2999 28.9844 24.0117C29.589 22.7557 30.0934 21.4534 30.42 20.5508L30.4805 20.4062C30.8054 19.713 31.5006 19.4691 31.9981 19.4658ZM32.0157 23.3428C31.7819 23.9059 31.5222 24.504 31.2374 25.0957C30.5976 26.4248 29.7846 27.8584 28.8585 28.793V28.7939C27.9136 29.7471 26.4513 30.5826 25.1065 31.2363C24.5503 31.5067 23.9894 31.7527 23.46 31.9766C23.9894 32.2005 24.5503 32.4474 25.1065 32.7178C26.4513 33.3715 27.9137 34.208 28.8585 35.1611C29.7921 36.1032 30.6031 37.5213 31.2403 38.8398C31.5203 39.4192 31.7743 40.0051 32.004 40.5576C32.2365 39.9998 32.4953 39.4093 32.7774 38.8252C33.4143 37.5069 34.2216 36.0884 35.1407 35.1611C36.0851 34.2085 37.5468 33.3725 38.8917 32.7188C39.4479 32.4483 40.0087 32.2015 40.5381 31.9775C40.009 31.7537 39.4486 31.5066 38.8926 31.2363C37.548 30.5827 36.0857 29.747 35.1407 28.7939V28.793C34.2626 27.907 33.4595 26.4713 32.8204 25.1436C32.5289 24.5379 32.2591 23.9222 32.0157 23.3428ZM42.1348 17.1084C42.1869 16.9651 42.4242 16.9634 42.4776 17.1064C42.7692 17.8877 43.3827 19.3949 43.9815 19.999C44.6374 20.6607 46.1447 21.267 46.8917 21.54C47.0374 21.5933 47.0374 21.7914 46.8917 21.8447C46.1446 22.1179 44.6369 22.7246 43.9815 23.3857C43.3443 24.0287 42.7585 25.4825 42.4776 26.2559C42.425 26.4007 42.1821 26.4009 42.1299 26.2559C41.8531 25.4863 41.2748 24.0423 40.6241 23.3857C39.9683 22.7241 38.4609 22.1178 37.7139 21.8447C37.5681 21.7914 37.5681 21.5933 37.7139 21.54C38.4609 21.267 39.9683 20.6606 40.6241 19.999C41.2667 19.3507 41.8565 17.8778 42.1348 17.1084Z" fill="white"/>
</svg>
