<svg width="40" height="40" viewBox="0 0 40 40" fill="none" xmlns="http://www.w3.org/2000/svg">
<path d="M19.8564 4.90039C20.7955 4.58618 21.8327 4.74537 22.6348 5.32324L22.6357 5.32422C23.441 5.90217 23.918 6.8344 23.918 7.82422V14.6279L24.0273 14.7021L31.8428 20.0293V20.0303C33.1424 20.9214 33.918 22.3876 33.918 23.957V32.4258H35C35.7834 32.4258 36.418 33.0596 36.418 33.8477C36.4178 34.6313 35.7837 35.2656 35 35.2656H5C4.21633 35.2656 3.58224 34.6313 3.58203 33.8477C3.58203 33.0639 4.2162 32.4297 5 32.4297H6.08203V12.9141C6.08203 10.9333 7.304 9.17137 9.14844 8.47266L9.3291 8.4082L19.8564 4.90039ZM20.7568 7.58691L10.2295 11.0947C9.44338 11.3555 8.91797 12.0883 8.91797 12.9141V32.4297H21.0859V7.47656L20.7568 7.58691ZM23.918 32.4258H31.0859V23.957C31.0859 23.323 30.7707 22.7298 30.2461 22.3711L24.3086 18.3242L23.918 18.0576V32.4258Z" fill="white" stroke="black" stroke-width="0.5"/>
<path d="M12.5 19.9258H17.5C18.2838 19.9258 18.918 20.5599 18.918 21.3438C18.918 22.1276 18.2838 22.7617 17.5 22.7617H12.5C11.7162 22.7617 11.082 22.1276 11.082 21.3438C11.082 20.5599 11.7162 19.9258 12.5 19.9258ZM12.5 14.9258H17.5C18.2838 14.9258 18.918 15.5599 18.918 16.3438C18.918 17.1276 18.2838 17.7617 17.5 17.7617H12.5C11.7162 17.7617 11.082 17.1276 11.082 16.3438C11.082 15.5599 11.7162 14.9258 12.5 14.9258Z" fill="white" stroke="black" stroke-width="0.5"/>
</svg>
