<svg width="64" height="64" viewBox="0 0 64 64" fill="none" xmlns="http://www.w3.org/2000/svg">
<rect width="64" height="64" rx="16" fill="black"/>
<path d="M22.6914 37.2939C22.0038 37.0206 21.2465 36.9475 20.5156 37.083C19.7848 37.2185 19.1106 37.557 18.5801 38.0576C18.0496 38.5582 17.6865 39.1987 17.5381 39.8984C17.3897 40.5986 17.4632 41.3251 17.75 41.9844C18.0367 42.6435 18.5228 43.2046 19.1436 43.5986C19.7637 43.9923 20.4916 44.2008 21.2354 44.2012V44.2021L21.2363 44.2012L21.2373 44.2021V44.2012C21.7298 44.2035 22.2184 44.1148 22.6748 43.9375C23.1317 43.76 23.5481 43.4985 23.8994 43.167C24.2508 42.8354 24.5306 42.4398 24.7217 42.0039C24.8887 41.6226 24.9854 41.2169 25.0068 40.8047L25.0107 40.6279C25.0146 39.9138 24.7956 39.2155 24.3818 38.6221C23.9681 38.0286 23.379 37.5673 22.6914 37.2939ZM44.5732 37.292C43.8844 37.0193 43.126 36.9469 42.3945 37.084C41.6632 37.2211 40.9897 37.5619 40.46 38.0645C39.93 38.5672 39.5679 39.2098 39.4219 39.9111C39.2759 40.6125 39.3527 41.3392 39.6426 41.998C39.9324 42.6567 40.4215 43.2167 41.0449 43.6084C41.6681 43.9999 42.3985 44.2059 43.1436 44.2021C44.1333 44.1971 45.0844 43.8218 45.7881 43.1543C46.4919 42.4864 46.8921 41.5792 46.8975 40.6289C46.9015 39.9136 46.6814 39.2142 46.2666 38.6201C45.8519 38.0263 45.262 37.5647 44.5732 37.292ZM31.9775 19.1094C30.9828 19.1196 30.0296 19.5013 29.3262 20.1758C28.6224 20.8508 28.2255 21.7654 28.2256 22.7207V22.7217C28.2297 23.4353 28.4563 24.1308 28.876 24.7197C29.2955 25.3084 29.8887 25.7635 30.5781 26.0303C31.2675 26.297 32.0242 26.364 32.7529 26.2227C33.4817 26.0812 34.152 25.7375 34.6777 25.2334C35.2035 24.7292 35.5614 24.0869 35.7041 23.3867C35.8468 22.6863 35.7677 21.9613 35.4766 21.3047C35.1856 20.6484 34.6966 20.0911 34.0742 19.7012C33.4519 19.3113 32.7229 19.1056 31.9795 19.1094H31.9775ZM19.5439 29.7988C19.5332 29.1844 19.6905 28.5769 20.002 28.0361C20.3136 27.4952 20.7695 27.039 21.3252 26.7129L21.3242 26.7119L25.3037 24.4561L25.4707 24.3604L25.4219 24.1738C25.3255 23.8103 25.26 23.4403 25.2256 23.0674L25.2012 22.6934C25.2061 22.333 25.2418 21.9738 25.3076 21.6191L25.3848 21.2617C25.7876 19.5973 26.8719 18.1481 28.4043 17.2373C29.937 16.3263 31.7905 16.0296 33.5557 16.4141C35.3207 16.7985 36.8491 17.8315 37.8066 19.2812C38.7638 20.7305 39.0736 22.4795 38.6709 24.1436L38.626 24.3291L38.7939 24.4209L42.8438 26.6396H42.8447C43.3993 26.967 43.8535 27.4241 44.165 27.9648C44.4766 28.5057 44.6351 29.1131 44.626 29.7275V34.3662L44.7861 34.4277L44.7871 34.4287C44.7881 34.4291 44.79 34.4289 44.792 34.4297C44.7961 34.4313 44.8024 34.4343 44.8105 34.4375C44.8269 34.4439 44.8514 34.4532 44.8828 34.4658C44.9456 34.491 45.0366 34.5281 45.1484 34.5752C45.3727 34.6696 45.6805 34.8048 46.0137 34.9648C46.6909 35.2902 47.436 35.7036 47.8242 36.0889L47.8262 36.0908C49.0816 37.312 49.7713 38.9535 49.749 40.6533C49.7267 42.3532 48.9935 43.9776 47.7061 45.1689C46.4181 46.3607 44.6813 47.0203 42.877 46.999C41.0727 46.9777 39.3537 46.2772 38.0977 45.0557L37.9648 44.9268L37.8027 45.0166L33.7119 47.2725C33.163 47.5602 32.5506 47.7231 31.9229 47.749C31.3742 47.7268 30.8375 47.5993 30.3447 47.375L30.1348 47.2725L26.332 45.126L26.165 45.0322L26.0312 45.168C25.2166 45.991 24.1827 46.5932 23.0371 46.9102L23.0322 46.9111C22.1687 47.1675 21.2594 47.2574 20.3584 47.1748C19.4572 47.0922 18.5824 46.839 17.7871 46.4307C16.9919 46.0224 16.2923 45.467 15.7285 44.7988C15.1647 44.1307 14.7487 43.3629 14.5039 42.541C14.2592 41.7193 14.1902 40.8596 14.3018 40.0127C14.4134 39.1657 14.7033 38.3476 15.1543 37.6074C15.6053 36.8672 16.2088 36.2188 16.9297 35.7021C17.6507 35.1854 18.4749 34.8108 19.3525 34.6006L19.5439 34.5547V29.7988ZM41.5449 29.7227L41.5439 29.7139C41.5345 29.5814 41.491 29.4537 41.418 29.3428C41.345 29.2321 41.2454 29.1416 41.1289 29.0781H41.1279L37.3223 26.9297L37.1514 26.833L37.0166 26.9766C36.3861 27.6501 35.6114 28.1898 34.7432 28.5596C33.8751 28.9292 32.9339 29.1198 31.9814 29.1191C31.0371 29.1117 30.1051 28.919 29.2441 28.5527C28.3831 28.1864 27.6124 27.6553 26.9805 26.9932L26.8467 26.8525L26.6768 26.9473L22.8672 29.0791C22.7494 29.1419 22.6501 29.2348 22.5801 29.3486C22.5266 29.4357 22.4917 29.5323 22.4785 29.6328L22.4727 29.7314V34.417L22.6738 34.458C24.1968 34.7655 25.5601 35.5582 26.5381 36.7012C27.5159 37.8441 28.0499 39.2684 28.0537 40.7363C28.0322 41.3226 27.922 41.9032 27.7256 42.46L27.6553 42.6592L27.8398 42.7617L31.6455 44.873V44.874C31.7615 44.9409 31.8944 44.9756 32.0283 44.9756C32.162 44.9755 32.2933 44.9397 32.4092 44.873L36.4258 42.6533L36.6055 42.5537L36.543 42.3584C36.3857 41.867 36.2948 41.3589 36.2734 40.8467L36.2686 40.627C36.2678 39.2098 36.7657 37.8314 37.6855 36.71C38.6057 35.5882 39.896 34.7873 41.3535 34.4375L41.5449 34.3916V29.7227Z" fill="white" stroke="black" stroke-width="0.5"/>
</svg>
